BenchTwelve Medium-regular.ufo
<glyph name="exclam" format="1">
  <advance width="541"/>
  <unicode hex="0021"/>
  <outline>
    <contour>
      <point x="215" y="0" type="curve" smooth="yes"/>
      <point x="323" y="0" type="line" smooth="yes"/>
      <point x="366" y="0"/>
      <point x="390" y="24"/>
      <point x="390" y="67" type="curve" smooth="yes"/>
      <point x="390" y="178" type="line" smooth="yes"/>
      <point x="390" y="221"/>
      <point x="366" y="245"/>
      <point x="323" y="245" type="curve" smooth="yes"/>
      <point x="215" y="245" type="line" smooth="yes"/>
      <point x="172" y="245"/>
      <point x="148" y="221"/>
      <point x="148" y="178" type="curve" smooth="yes"/>
      <point x="148" y="67" type="line" smooth="yes"/>
      <point x="148" y="24"/>
      <point x="172" y="0"/>
    </contour>
    <contour>
      <point x="275" y="430" type="curve" smooth="yes"/>
      <point x="275" y="430" type="line" smooth="yes"/>
      <point x="318" y="430"/>
      <point x="319" y="453"/>
      <point x="322" y="496" type="curve" smooth="yes"/>
      <point x="381" y="1340" type="line"/>
      <point x="384" y="1383"/>
      <point x="357" y="1436"/>
      <point x="314" y="1436" type="curve" smooth="yes"/>
      <point x="229" y="1436" type="line" smooth="yes"/>
      <point x="186" y="1436"/>
      <point x="159" y="1412"/>
      <point x="162" y="1369" type="curve"/>
      <point x="228" y="496" type="line" smooth="yes"/>
      <point x="231" y="453"/>
      <point x="232" y="430"/>
    </contour>
  </outline>
</glyph>
<glyph name="quotedbl" format="1">
  <advance width="826"/>
  <unicode hex="0022"/>
  <outline>
    <contour>
      <point x="245" y="774" type="curve" smooth="yes"/>
      <point x="248" y="774" type="line" smooth="yes"/>
      <point x="291" y="774"/>
      <point x="289" y="798"/>
      <point x="294" y="841" type="curve"/>
      <point x="353" y="1347" type="line"/>
      <point x="358" y="1390"/>
      <point x="329" y="1436"/>
      <point x="286" y="1436" type="curve" smooth="yes"/>
      <point x="199" y="1436" type="line" smooth="yes"/>
      <point x="156" y="1436"/>
      <point x="126" y="1391"/>
      <point x="133" y="1348" type="curve"/>
      <point x="199" y="841" type="line"/>
      <point x="205" y="798"/>
      <point x="202" y="774"/>
    </contour>
    <contour>
      <point x="581" y="774" type="curve" smooth="yes"/>
      <point x="584" y="774" type="line" smooth="yes"/>
      <point x="627" y="774"/>
      <point x="625" y="798"/>
      <point x="630" y="841" type="curve"/>
      <point x="689" y="1347" type="line"/>
      <point x="694" y="1390"/>
      <point x="666" y="1436"/>
      <point x="623" y="1436" type="curve" smooth="yes"/>
      <point x="536" y="1436" type="line" smooth="yes"/>
      <point x="493" y="1436"/>
      <point x="463" y="1391"/>
      <point x="469" y="1348" type="curve"/>
      <point x="535" y="841" type="line"/>
      <point x="541" y="798"/>
      <point x="538" y="774"/>
    </contour>
  </outline>
</glyph>
<glyph name="ampersand" format="1">
  <advance width="2413"/>
  <unicode hex="0026"/>
  <outline>
    <contour>
      <point x="1941" y="-41" type="curve" smooth="yes"/>
      <point x="2051" y="-41"/>
      <point x="2140" y="-26"/>
      <point x="2218" y="5" type="curve" smooth="yes"/>
      <point x="2259" y="21"/>
      <point x="2281" y="36"/>
      <point x="2269" y="78" type="curve" smooth="yes"/>
      <point x="2259" y="106" type="line" smooth="yes"/>
      <point x="2249" y="141"/>
      <point x="2243" y="163"/>
      <point x="2185" y="144" type="curve" smooth="yes"/>
      <point x="2125" y="124"/>
      <point x="2051" y="107"/>
      <point x="1982" y="107" type="curve" smooth="yes"/>
      <point x="1831" y="107"/>
      <point x="1757" y="163"/>
      <point x="1757" y="301" type="curve" smooth="yes"/>
      <point x="1757" y="637" type="line" smooth="yes"/>
      <point x="1757" y="657"/>
      <point x="1764" y="663"/>
      <point x="1784" y="663" type="curve" smooth="yes"/>
      <point x="2166" y="663" type="line" smooth="yes"/>
      <point x="2209" y="663"/>
      <point x="2233" y="687"/>
      <point x="2233" y="730" type="curve" smooth="yes"/>
      <point x="2233" y="752" type="line" smooth="yes"/>
      <point x="2233" y="795"/>
      <point x="2209" y="818"/>
      <point x="2166" y="818" type="curve" smooth="yes"/>
      <point x="1784" y="818" type="line" smooth="yes"/>
      <point x="1764" y="818"/>
      <point x="1757" y="825"/>
      <point x="1757" y="845" type="curve" smooth="yes"/>
      <point x="1757" y="1056" type="line" smooth="yes"/>
      <point x="1757" y="1099"/>
      <point x="1733" y="1122"/>
      <point x="1690" y="1122" type="curve" smooth="yes"/>
      <point x="1626" y="1122" type="line" smooth="yes"/>
      <point x="1583" y="1122"/>
      <point x="1567" y="1098"/>
      <point x="1559" y="1056" type="curve"/>
      <point x="1539" y="845" type="line"/>
      <point x="1539" y="825"/>
      <point x="1532" y="818"/>
      <point x="1512" y="818" type="curve" smooth="yes"/>
      <point x="795" y="818" type="line" smooth="yes"/>
      <point x="391" y="818"/>
      <point x="340" y="950"/>
      <point x="358" y="1088" type="curve" smooth="yes"/>
      <point x="370" y="1182"/>
      <point x="409" y="1303"/>
      <point x="896" y="1303" type="curve" smooth="yes"/>
      <point x="1234" y="1303"/>
      <point x="1390" y="1253"/>
      <point x="1429" y="1245" type="curve" smooth="yes"/>
      <point x="1438" y="1243"/>
      <point x="1445" y="1242"/>
      <point x="1452" y="1242" type="curve" smooth="yes"/>
      <point x="1478" y="1242"/>
      <point x="1492" y="1255"/>
      <point x="1496" y="1286" type="curve" smooth="yes"/>
      <point x="1501" y="1342" type="line" smooth="yes"/>
      <point x="1502" y="1347"/>
      <point x="1502" y="1351"/>
      <point x="1502" y="1355" type="curve" smooth="yes"/>
      <point x="1502" y="1385"/>
      <point x="1486" y="1402"/>
      <point x="1449" y="1412" type="curve"/>
      <point x="1336" y="1445"/>
      <point x="1106" y="1474"/>
      <point x="907" y="1474" type="curve" smooth="yes"/>
      <point x="302" y="1474"/>
      <point x="142" y="1318"/>
      <point x="142" y="1068" type="curve" smooth="yes"/>
      <point x="142" y="890"/>
      <point x="267" y="768"/>
      <point x="476" y="742" type="curve"/>
      <point x="277" y="722"/>
      <point x="165" y="564"/>
      <point x="165" y="386" type="curve" smooth="yes"/>
      <point x="165" y="147"/>
      <point x="316" y="-40"/>
      <point x="921" y="-40" type="curve" smooth="yes"/>
      <point x="1245" y="-40"/>
      <point x="1480" y="45"/>
      <point x="1610" y="89" type="curve"/>
      <point x="1674" y="7"/>
      <point x="1781" y="-41"/>
    </contour>
    <contour>
      <point x="929" y="131" type="curve" smooth="yes"/>
      <point x="583" y="131"/>
      <point x="399" y="196"/>
      <point x="380" y="335" type="curve" smooth="yes"/>
      <point x="363" y="469"/>
      <point x="376" y="660"/>
      <point x="785" y="663" type="curve" smooth="yes"/>
      <point x="1512" y="663" type="line" smooth="yes"/>
      <point x="1532" y="663"/>
      <point x="1539" y="657"/>
      <point x="1539" y="637" type="curve" smooth="yes"/>
      <point x="1539" y="331" type="line" smooth="yes"/>
      <point x="1539" y="300"/>
      <point x="1541" y="270"/>
      <point x="1546" y="243" type="curve"/>
      <point x="1425" y="201"/>
      <point x="1195" y="131"/>
    </contour>
  </outline>
</glyph>
<glyph name="quotesingle" format="1">
  <advance width="501"/>
  <unicode hex="0027"/>
  <outline>
    <contour>
      <point x="254" y="774" type="curve" smooth="yes"/>
      <point x="257" y="774" type="line" smooth="yes"/>
      <point x="300" y="774"/>
      <point x="298" y="798"/>
      <point x="303" y="841" type="curve"/>
      <point x="362" y="1347" type="line"/>
      <point x="367" y="1390"/>
      <point x="339" y="1436"/>
      <point x="296" y="1436" type="curve" smooth="yes"/>
      <point x="208" y="1436" type="line" smooth="yes"/>
      <point x="165" y="1436"/>
      <point x="136" y="1391"/>
      <point x="142" y="1348" type="curve"/>
      <point x="208" y="841" type="line"/>
      <point x="214" y="798"/>
      <point x="211" y="774"/>
    </contour>
  </outline>
</glyph>
<glyph name="parenright" format="1">
  <advance width="840"/>
  <unicode hex="0029"/>
  <outline>
    <contour>
      <point x="190" y="-143" type="curve" smooth="yes"/>
      <point x="585" y="-62"/>
      <point x="698" y="297"/>
      <point x="698" y="698" type="curve" smooth="yes"/>
      <point x="698" y="1098"/>
      <point x="585" y="1458"/>
      <point x="190" y="1540" type="curve" smooth="yes"/>
      <point x="151" y="1548"/>
      <point x="113" y="1508"/>
      <point x="113" y="1470" type="curve" smooth="yes"/>
      <point x="113" y="1454" type="line" smooth="yes"/>
      <point x="113" y="1385"/>
      <point x="156" y="1385"/>
      <point x="218" y="1354" type="curve" smooth="yes"/>
      <point x="350" y="1288"/>
      <point x="479" y="1167"/>
      <point x="479" y="698" type="curve" smooth="yes"/>
      <point x="479" y="229"/>
      <point x="351" y="111"/>
      <point x="218" y="45" type="curve" smooth="yes"/>
      <point x="156" y="13"/>
      <point x="113" y="14"/>
      <point x="113" y="-55" type="curve" smooth="yes"/>
      <point x="113" y="-73" type="line" smooth="yes"/>
      <point x="113" y="-111"/>
      <point x="151" y="-151"/>
    </contour>
  </outline>
</glyph>
<glyph name="asterisk" format="1">
  <advance width="1289"/>
  <unicode hex="002A"/>
  <outline>
    <contour>
      <point x="389" y="292" type="curve" smooth="yes"/>
      <point x="423" y="292"/>
      <point x="454" y="313"/>
      <point x="469" y="342" type="curve" smooth="yes"/>
      <point x="644" y="692" type="line"/>
      <point x="817" y="342" type="line" smooth="yes"/>
      <point x="832" y="313"/>
      <point x="864" y="292"/>
      <point x="898" y="292" type="curve" smooth="yes"/>
      <point x="947" y="292"/>
      <point x="994" y="336"/>
      <point x="994" y="385" type="curve" smooth="yes"/>
      <point x="994" y="463"/>
      <point x="761" y="682"/>
      <point x="712" y="738" type="curve"/>
      <point x="1093" y="821" type="line" smooth="yes"/>
      <point x="1133" y="830"/>
      <point x="1165" y="866"/>
      <point x="1165" y="907" type="curve" smooth="yes"/>
      <point x="1165" y="957"/>
      <point x="1126" y="1005"/>
      <point x="1075" y="1005" type="curve" smooth="yes"/>
      <point x="1016" y="1005"/>
      <point x="747" y="848"/>
      <point x="684" y="815" type="curve"/>
      <point x="700" y="942"/>
      <point x="734" y="1091"/>
      <point x="734" y="1217" type="curve" smooth="yes"/>
      <point x="734" y="1267"/>
      <point x="693" y="1305"/>
      <point x="644" y="1305" type="curve" smooth="yes"/>
      <point x="597" y="1305"/>
      <point x="550" y="1272"/>
      <point x="550" y="1222" type="curve" smooth="yes"/>
      <point x="550" y="1094"/>
      <point x="585" y="944"/>
      <point x="602" y="815" type="curve"/>
      <point x="539" y="848"/>
      <point x="271" y="1005"/>
      <point x="212" y="1005" type="curve" smooth="yes"/>
      <point x="160" y="1005"/>
      <point x="121" y="957"/>
      <point x="121" y="907" type="curve" smooth="yes"/>
      <point x="121" y="866"/>
      <point x="153" y="830"/>
      <point x="194" y="821" type="curve" smooth="yes"/>
      <point x="575" y="738" type="line"/>
      <point x="525" y="682"/>
      <point x="292" y="463"/>
      <point x="292" y="385" type="curve" smooth="yes"/>
      <point x="292" y="336"/>
      <point x="339" y="292"/>
    </contour>
  </outline>
</glyph>
<glyph name="slash" format="1">
  <advance width="1079"/>
  <unicode hex="002F"/>
  <outline>
    <contour>
      <point x="108" y="-203" type="curve"/>
      <point x="107" y="-203"/>
      <point x="272" y="-203"/>
      <point x="272" y="-203" type="curve"/>
      <point x="292" y="-203"/>
      <point x="313" y="-189"/>
      <point x="321" y="-169" type="curve" smooth="yes"/>
      <point x="1008" y="1615" type="line" smooth="yes"/>
      <point x="1014" y="1630"/>
      <point x="1002" y="1647"/>
      <point x="986" y="1647" type="curve" smooth="yes"/>
      <point x="986" y="1647"/>
      <point x="823" y="1647"/>
      <point x="823" y="1647" type="curve" smooth="yes"/>
      <point x="800" y="1647"/>
      <point x="781" y="1633"/>
      <point x="773" y="1612" type="curve" smooth="yes"/>
      <point x="86" y="-169" type="line" smooth="yes"/>
      <point x="81" y="-185"/>
      <point x="91" y="-203"/>
    </contour>
  </outline>
</glyph>
<glyph name="one" format="1">
  <advance width="842"/>
  <unicode hex="0031"/>
  <outline>
    <contour>
      <point x="535" y="0" type="curve" smooth="yes"/>
      <point x="615" y="0" type="line" smooth="yes"/>
      <point x="658" y="0"/>
      <point x="682" y="24"/>
      <point x="682" y="67" type="curve" smooth="yes"/>
      <point x="682" y="1371" type="line" smooth="yes"/>
      <point x="682" y="1414"/>
      <point x="658" y="1438"/>
      <point x="615" y="1438" type="curve"/>
      <point x="156" y="1389" type="line"/>
      <point x="113" y="1389"/>
      <point x="89" y="1365"/>
      <point x="89" y="1322" type="curve" smooth="yes"/>
      <point x="89" y="1292" type="line" smooth="yes"/>
      <point x="89" y="1249"/>
      <point x="113" y="1225"/>
      <point x="156" y="1225" type="curve"/>
      <point x="431" y="1256" type="line"/>
      <point x="451" y="1256"/>
      <point x="468" y="1239"/>
      <point x="468" y="1219" type="curve" smooth="yes"/>
      <point x="468" y="67" type="line" smooth="yes"/>
      <point x="468" y="24"/>
      <point x="492" y="0"/>
    </contour>
  </outline>
</glyph>
<glyph name="two" format="1">
  <advance width="1986"/>
  <unicode hex="0032"/>
  <outline>
    <contour>
      <point x="223" y="0" type="curve" smooth="yes"/>
      <point x="1753" y="0" type="line" smooth="yes"/>
      <point x="1791" y="0"/>
      <point x="1805" y="10"/>
      <point x="1805" y="51" type="curve" smooth="yes"/>
      <point x="1805" y="99" type="line" smooth="yes"/>
      <point x="1805" y="145"/>
      <point x="1787" y="163"/>
      <point x="1761" y="163" type="curve" smooth="yes"/>
      <point x="470" y="163" type="line" smooth="yes"/>
      <point x="433" y="163"/>
      <point x="398" y="184"/>
      <point x="398" y="218" type="curve" smooth="yes"/>
      <point x="398" y="222"/>
      <point x="399" y="228"/>
      <point x="400" y="234" type="curve" smooth="yes"/>
      <point x="566" y="833"/>
      <point x="1844" y="268"/>
      <point x="1846" y="990" type="curve" smooth="yes"/>
      <point x="1847" y="1357"/>
      <point x="1477" y="1478"/>
      <point x="932" y="1478" type="curve"/>
      <point x="697" y="1477"/>
      <point x="336" y="1391"/>
      <point x="228" y="1352" type="curve" smooth="yes"/>
      <point x="203" y="1340"/>
      <point x="193" y="1320"/>
      <point x="193" y="1283" type="curve" smooth="yes"/>
      <point x="193" y="1279"/>
      <point x="192" y="1279"/>
      <point x="224" y="1212" type="curve"/>
      <point x="229" y="1191"/>
      <point x="247" y="1182"/>
      <point x="279" y="1182" type="curve" smooth="yes"/>
      <point x="292" y="1182"/>
      <point x="304" y="1186"/>
      <point x="322" y="1192" type="curve" smooth="yes"/>
      <point x="345" y="1200"/>
      <point x="646" y="1305"/>
      <point x="937" y="1305" type="curve" smooth="yes"/>
      <point x="1483" y="1305"/>
      <point x="1625" y="1200"/>
      <point x="1625" y="970" type="curve" smooth="yes"/>
      <point x="1625" y="485"/>
      <point x="315" y="1068"/>
      <point x="133" y="117" type="curve" smooth="yes"/>
      <point x="131" y="106"/>
      <point x="130" y="100"/>
      <point x="130" y="90" type="curve" smooth="yes"/>
      <point x="130" y="34"/>
      <point x="164" y="0"/>
    </contour>
  </outline>
</glyph>
<glyph name="nine" format="1">
  <advance width="1859"/>
  <unicode hex="0039"/>
  <outline>
    <contour>
      <point x="877" y="-42" type="curve" smooth="yes"/>
      <point x="1439" y="-42"/>
      <point x="1719" y="133"/>
      <point x="1719" y="692" type="curve" smooth="yes"/>
      <point x="1719" y="1135"/>
      <point x="1600" y="1472"/>
      <point x="947" y="1472" type="curve" smooth="yes"/>
      <point x="490" y="1472"/>
      <point x="131" y="1369"/>
      <point x="131" y="1004" type="curve" smooth="yes"/>
      <point x="131" y="748"/>
      <point x="291" y="535"/>
      <point x="899" y="535" type="curve" smooth="yes"/>
      <point x="1063" y="535"/>
      <point x="1260" y="550"/>
      <point x="1495" y="584" type="curve"/>
      <point x="1495" y="520" type="line"/>
      <point x="1495" y="277"/>
      <point x="1333" y="131"/>
      <point x="899" y="131" type="curve" smooth="yes"/>
      <point x="729" y="131"/>
      <point x="458" y="180"/>
      <point x="370" y="220" type="curve" smooth="yes"/>
      <point x="365" y="222"/>
      <point x="360" y="223"/>
      <point x="355" y="223" type="curve" smooth="yes"/>
      <point x="341" y="223"/>
      <point x="326" y="215"/>
      <point x="320" y="197" type="curve" smooth="yes"/>
      <point x="289" y="105" type="line" smooth="yes"/>
      <point x="287" y="100"/>
      <point x="287" y="95"/>
      <point x="287" y="90" type="curve" smooth="yes"/>
      <point x="287" y="72"/>
      <point x="297" y="59"/>
      <point x="314" y="53" type="curve" smooth="yes"/>
      <point x="434" y="4"/>
      <point x="696" y="-42"/>
    </contour>
    <contour>
      <point x="905" y="693" type="curve" smooth="yes"/>
      <point x="451" y="693"/>
      <point x="347" y="824"/>
      <point x="347" y="997" type="curve" smooth="yes"/>
      <point x="347" y="1243"/>
      <point x="552" y="1299"/>
      <point x="947" y="1299" type="curve" smooth="yes"/>
      <point x="1340" y="1299"/>
      <point x="1505" y="1143"/>
      <point x="1505" y="874" type="curve" smooth="yes"/>
      <point x="1505" y="743" type="line"/>
      <point x="1256" y="708"/>
      <point x="1059" y="693"/>
    </contour>
  </outline>
</glyph>
<glyph name="greater" format="1">
  <advance width="1209"/>
  <unicode hex="003E"/>
  <outline>
    <contour>
      <point x="170" y="-21" type="curve" smooth="yes"/>
      <point x="180" y="-21"/>
      <point x="193" y="-17"/>
      <point x="209" y="-9" type="curve" smooth="yes"/>
      <point x="1019" y="427" type="line" smooth="yes"/>
      <point x="1059" y="450"/>
      <point x="1085" y="484"/>
      <point x="1085" y="523" type="curve" smooth="yes"/>
      <point x="1085" y="625" type="line" smooth="yes"/>
      <point x="1085" y="665"/>
      <point x="1063" y="711"/>
      <point x="1019" y="731" type="curve" smooth="yes"/>
      <point x="209" y="1130" type="line" smooth="yes"/>
      <point x="188" y="1139"/>
      <point x="176" y="1148"/>
      <point x="165" y="1148" type="curve" smooth="yes"/>
      <point x="149" y="1148"/>
      <point x="142" y="1135"/>
      <point x="142" y="1110" type="curve" smooth="yes"/>
      <point x="142" y="1034" type="line" smooth="yes"/>
      <point x="142" y="991"/>
      <point x="162" y="963"/>
      <point x="209" y="940" type="curve" smooth="yes"/>
      <point x="918" y="593" type="line" smooth="yes"/>
      <point x="924" y="590"/>
      <point x="927" y="585"/>
      <point x="927" y="581" type="curve" smooth="yes"/>
      <point x="927" y="576"/>
      <point x="924" y="571"/>
      <point x="918" y="568" type="curve" smooth="yes"/>
      <point x="209" y="180" type="line" smooth="yes"/>
      <point x="166" y="156"/>
      <point x="142" y="140"/>
      <point x="142" y="97" type="curve" smooth="yes"/>
      <point x="142" y="21" type="line" smooth="yes"/>
      <point x="142" y="-7"/>
      <point x="151" y="-21"/>
    </contour>
  </outline>
</glyph>
<glyph name="H" format="1">
  <advance width="2038"/>
  <unicode hex="0048"/>
  <outline>
    <contour>
      <point x="1019" y="1438" type="move" name="top"/>
    </contour>
    <contour>
      <point x="1019" y="719" type="move" name="center"/>
    </contour>
    <contour>
      <point x="227" y="0" type="curve" smooth="yes"/>
      <point x="309" y="0" type="line" smooth="yes"/>
      <point x="352" y="0"/>
      <point x="376" y="24"/>
      <point x="376" y="67" type="curve" smooth="yes"/>
      <point x="376" y="650" type="line" smooth="yes"/>
      <point x="376" y="650"/>
      <point x="392" y="666"/>
      <point x="391" y="666" type="curve" smooth="yes"/>
      <point x="1647" y="666" type="line" smooth="yes"/>
      <point x="1647" y="666"/>
      <point x="1663" y="648"/>
      <point x="1663" y="648" type="curve" smooth="yes"/>
      <point x="1663" y="67" type="line" smooth="yes"/>
      <point x="1663" y="24"/>
      <point x="1686" y="0"/>
      <point x="1729" y="0" type="curve" smooth="yes"/>
      <point x="1811" y="0" type="line" smooth="yes"/>
      <point x="1854" y="0"/>
      <point x="1878" y="24"/>
      <point x="1878" y="67" type="curve" smooth="yes"/>
      <point x="1878" y="1371" type="line" smooth="yes"/>
      <point x="1878" y="1414"/>
      <point x="1854" y="1438"/>
      <point x="1811" y="1438" type="curve" smooth="yes"/>
      <point x="1729" y="1438" type="line" smooth="yes"/>
      <point x="1686" y="1438"/>
      <point x="1663" y="1414"/>
      <point x="1663" y="1371" type="curve" smooth="yes"/>
      <point x="1663" y="838" type="line" smooth="yes"/>
      <point x="1663" y="839"/>
      <point x="1645" y="821"/>
      <point x="1645" y="821" type="curve" smooth="yes"/>
      <point x="389" y="821" type="line" smooth="yes"/>
      <point x="390" y="821"/>
      <point x="376" y="836"/>
      <point x="376" y="835" type="curve" smooth="yes"/>
      <point x="376" y="1371" type="line" smooth="yes"/>
      <point x="376" y="1414"/>
      <point x="352" y="1438"/>
      <point x="309" y="1438" type="curve" smooth="yes"/>
      <point x="227" y="1438" type="line" smooth="yes"/>
      <point x="184" y="1438"/>
      <point x="160" y="1414"/>
      <point x="160" y="1371" type="curve" smooth="yes"/>
      <point x="160" y="67" type="line" smooth="yes"/>
      <point x="160" y="24"/>
      <point x="184" y="0"/>
    </contour>
  </outline>
</glyph>
<glyph name="I" format="1">
  <advance width="535"/>
  <unicode hex="0049"/>
  <outline>
    <contour>
      <point x="267" y="1438" type="move" name="top"/>
    </contour>
    <contour>
      <point x="481" y="10" type="move" name="ogonek"/>
    </contour>
    <contour>
      <point x="227" y="0" type="curve" smooth="yes"/>
      <point x="308" y="0" type="line" smooth="yes"/>
      <point x="351" y="0"/>
      <point x="375" y="24"/>
      <point x="375" y="67" type="curve" smooth="yes"/>
      <point x="375" y="1371" type="line" smooth="yes"/>
      <point x="375" y="1414"/>
      <point x="351" y="1438"/>
      <point x="308" y="1438" type="curve" smooth="yes"/>
      <point x="227" y="1438" type="line" smooth="yes"/>
      <point x="184" y="1438"/>
      <point x="160" y="1414"/>
      <point x="160" y="1371" type="curve" smooth="yes"/>
      <point x="160" y="67" type="line" smooth="yes"/>
      <point x="160" y="24"/>
      <point x="184" y="0"/>
    </contour>
  </outline>
</glyph>
<glyph name="M" format="1">
  <advance width="2412"/>
  <unicode hex="004D"/>
  <outline>
    <contour>
      <point x="208" y="0" type="curve" smooth="yes"/>
      <point x="291" y="0" type="line" smooth="yes"/>
      <point x="334" y="0"/>
      <point x="359" y="24"/>
      <point x="362" y="67" type="curve"/>
      <point x="456" y="1069" type="line" smooth="yes"/>
      <point x="456" y="1068"/>
      <point x="467" y="1072"/>
      <point x="467" y="1073" type="curve" smooth="yes"/>
      <point x="1044" y="67" type="line" smooth="yes"/>
      <point x="1068" y="26"/>
      <point x="1103" y="2"/>
      <point x="1144" y="0" type="curve" smooth="yes"/>
      <point x="1246" y="0" type="line" smooth="yes"/>
      <point x="1287" y="2"/>
      <point x="1323" y="26"/>
      <point x="1347" y="67" type="curve" smooth="yes"/>
      <point x="1949" y="1086" type="line" smooth="yes"/>
      <point x="1949" y="1086"/>
      <point x="1962" y="1085"/>
      <point x="1962" y="1085" type="curve" smooth="yes"/>
      <point x="2049" y="67" type="line"/>
      <point x="2052" y="24"/>
      <point x="2078" y="0"/>
      <point x="2121" y="0" type="curve" smooth="yes"/>
      <point x="2204" y="0" type="line" smooth="yes"/>
      <point x="2247" y="0"/>
      <point x="2269" y="24"/>
      <point x="2266" y="67" type="curve"/>
      <point x="2157" y="1371" type="line"/>
      <point x="2154" y="1412"/>
      <point x="2131" y="1435"/>
      <point x="2092" y="1438" type="curve" smooth="yes"/>
      <point x="2000" y="1438" type="line" smooth="yes"/>
      <point x="1960" y="1435"/>
      <point x="1924" y="1412"/>
      <point x="1900" y="1371" type="curve" smooth="yes"/>
      <point x="1208" y="200" type="line" smooth="yes"/>
      <point x="1208" y="201"/>
      <point x="1187" y="201"/>
      <point x="1187" y="200" type="curve" smooth="yes"/>
      <point x="516" y="1371" type="line" smooth="yes"/>
      <point x="492" y="1412"/>
      <point x="457" y="1435"/>
      <point x="417" y="1438" type="curve" smooth="yes"/>
      <point x="324" y="1438" type="line" smooth="yes"/>
      <point x="286" y="1435"/>
      <point x="264" y="1412"/>
      <point x="261" y="1371" type="curve"/>
      <point x="145" y="67" type="line"/>
      <point x="142" y="24"/>
      <point x="165" y="0"/>
    </contour>
  </outline>
</glyph>
<glyph name="O" format="1">
  <advance width="2174"/>
  <unicode hex="004F"/>
  <outline>
    <contour>
      <point x="1087" y="1438" type="move" name="top"/>
    </contour>
    <contour>
      <point x="1087" y="121" type="curve" smooth="yes"/>
      <point x="696" y="121"/>
      <point x="347" y="229"/>
      <point x="347" y="724" type="curve" smooth="yes"/>
      <point x="347" y="1145"/>
      <point x="683" y="1313"/>
      <point x="1087" y="1313" type="curve" smooth="yes"/>
      <point x="1494" y="1313"/>
      <point x="1827" y="1145"/>
      <point x="1827" y="724" type="curve" smooth="yes"/>
      <point x="1827" y="229"/>
      <point x="1481" y="121"/>
    </contour>
    <contour>
      <point x="1087" y="-41" type="curve" smooth="yes"/>
      <point x="1546" y="-41"/>
      <point x="2040" y="106"/>
      <point x="2040" y="724" type="curve" smooth="yes"/>
      <point x="2040" y="1295"/>
      <point x="1546" y="1475"/>
      <point x="1087" y="1475" type="curve" smooth="yes"/>
      <point x="631" y="1475"/>
      <point x="134" y="1295"/>
      <point x="134" y="724" type="curve" smooth="yes"/>
      <point x="134" y="106"/>
      <point x="631" y="-41"/>
    </contour>
  </outline>
</glyph>
<glyph name="P" format="1">
  <advance width="2011"/>
  <unicode hex="0050"/>
  <outline>
    <contour>
      <point x="227" y="0" type="curve" smooth="yes"/>
      <point x="308" y="0" type="line" smooth="yes"/>
      <point x="351" y="0"/>
      <point x="375" y="24"/>
      <point x="375" y="67" type="curve" smooth="yes"/>
      <point x="375" y="422" type="line" smooth="yes"/>
      <point x="375" y="422"/>
      <point x="394" y="442"/>
      <point x="394" y="442" type="curve" smooth="yes"/>
      <point x="390" y="442"/>
      <point x="969" y="442"/>
      <point x="965" y="442" type="curve" smooth="yes"/>
      <point x="1497" y="442"/>
      <point x="1878" y="442"/>
      <point x="1878" y="965" type="curve" smooth="yes"/>
      <point x="1878" y="1440"/>
      <point x="1363" y="1438"/>
      <point x="905" y="1438" type="curve" smooth="yes"/>
      <point x="914" y="1438"/>
      <point x="217" y="1438"/>
      <point x="227" y="1438" type="curve" smooth="yes"/>
      <point x="184" y="1438"/>
      <point x="160" y="1414"/>
      <point x="160" y="1371" type="curve" smooth="yes"/>
      <point x="160" y="67" type="line" smooth="yes"/>
      <point x="160" y="24"/>
      <point x="184" y="0"/>
    </contour>
    <contour>
      <point x="391" y="614" type="line"/>
      <point x="391" y="614"/>
      <point x="375" y="636"/>
      <point x="375" y="635" type="curve" smooth="yes"/>
      <point x="375" y="1268" type="line" smooth="yes"/>
      <point x="375" y="1268"/>
      <point x="392" y="1284"/>
      <point x="392" y="1284" type="curve" smooth="yes"/>
      <point x="909" y="1284" type="line" smooth="yes"/>
      <point x="1366" y="1284"/>
      <point x="1662" y="1265"/>
      <point x="1662" y="965" type="curve" smooth="yes"/>
      <point x="1662" y="614"/>
      <point x="1465" y="614"/>
      <point x="957" y="614" type="curve" smooth="yes"/>
    </contour>
  </outline>
</glyph>
<glyph name="S" format="1">
  <advance width="1963"/>
  <unicode hex="0053"/>
  <outline>
    <contour>
      <point x="981" y="1438" type="move" name="top"/>
    </contour>
    <contour>
      <point x="981" y="0" type="move" name="bottom"/>
    </contour>
    <contour>
      <point x="964" y="-41" type="curve" smooth="yes"/>
      <point x="1552" y="-41"/>
      <point x="1828" y="58"/>
      <point x="1828" y="436" type="curve" smooth="yes"/>
      <point x="1828" y="714"/>
      <point x="1625" y="836"/>
      <point x="1038" y="834" type="curve" smooth="yes"/>
      <point x="396" y="833"/>
      <point x="354" y="913"/>
      <point x="354" y="1066" type="curve" smooth="yes"/>
      <point x="354" y="1201"/>
      <point x="471" y="1312"/>
      <point x="984" y="1312" type="curve" smooth="yes"/>
      <point x="1455" y="1312"/>
      <point x="1580" y="1189"/>
      <point x="1638" y="1191" type="curve" smooth="yes"/>
      <point x="1704" y="1191"/>
      <point x="1712" y="1251"/>
      <point x="1711" y="1250" type="curve" smooth="yes"/>
      <point x="1716" y="1260"/>
      <point x="1716" y="1266"/>
      <point x="1716" y="1276" type="curve" smooth="yes"/>
      <point x="1715" y="1304"/>
      <point x="1700" y="1330"/>
      <point x="1676" y="1341" type="curve" smooth="yes"/>
      <point x="1476" y="1429"/>
      <point x="1306" y="1475"/>
      <point x="988" y="1475" type="curve" smooth="yes"/>
      <point x="505" y="1475"/>
      <point x="145" y="1408"/>
      <point x="145" y="1045" type="curve" smooth="yes"/>
      <point x="145" y="723"/>
      <point x="412" y="656"/>
      <point x="996" y="658" type="curve" smooth="yes"/>
      <point x="1568" y="658"/>
      <point x="1625" y="570"/>
      <point x="1625" y="410" type="curve" smooth="yes"/>
      <point x="1625" y="228"/>
      <point x="1533" y="121"/>
      <point x="984" y="121" type="curve" smooth="yes"/>
      <point x="434" y="121"/>
      <point x="285" y="259"/>
      <point x="222" y="257" type="curve" smooth="yes"/>
      <point x="192" y="256"/>
      <point x="170" y="244"/>
      <point x="155" y="212" type="curve" smooth="yes"/>
      <point x="155" y="212"/>
      <point x="145" y="172"/>
      <point x="145" y="163" type="curve" smooth="yes"/>
      <point x="145" y="134"/>
      <point x="161" y="107"/>
      <point x="186" y="97" type="curve" smooth="yes"/>
      <point x="463" y="-9"/>
      <point x="657" y="-41"/>
    </contour>
  </outline>
</glyph>
<glyph name="T" format="1">
  <advance width="1683"/>
  <unicode hex="0054"/>
  <outline>
    <contour>
      <point x="842" y="1438" type="move" name="top"/>
    </contour>
    <contour>
      <point x="842" y="719" type="move" name="center"/>
    </contour>
    <contour>
      <point x="842" y="0" type="move" name="bottom"/>
    </contour>
    <contour>
      <point x="800" y="0" type="curve" smooth="yes"/>
      <point x="882" y="0" type="line" smooth="yes"/>
      <point x="925" y="0"/>
      <point x="949" y="24"/>
      <point x="949" y="67" type="curve" smooth="yes"/>
      <point x="949" y="1258" type="line" smooth="yes"/>
      <point x="949" y="1278"/>
      <point x="955" y="1283"/>
      <point x="975" y="1283" type="curve" smooth="yes"/>
      <point x="1535" y="1283" type="line" smooth="yes"/>
      <point x="1578" y="1283"/>
      <point x="1602" y="1317"/>
      <point x="1602" y="1360" type="curve" smooth="yes"/>
      <point x="1602" y="1361" type="line" smooth="yes"/>
      <point x="1602" y="1404"/>
      <point x="1578" y="1438"/>
      <point x="1535" y="1438" type="curve" smooth="yes"/>
      <point x="144" y="1438" type="line" smooth="yes"/>
      <point x="101" y="1438"/>
      <point x="77" y="1404"/>
      <point x="77" y="1361" type="curve" smooth="yes"/>
      <point x="77" y="1360" type="line" smooth="yes"/>
      <point x="77" y="1317"/>
      <point x="101" y="1283"/>
      <point x="144" y="1283" type="curve" smooth="yes"/>
      <point x="706" y="1283" type="line" smooth="yes"/>
      <point x="726" y="1283"/>
      <point x="733" y="1278"/>
      <point x="733" y="1258" type="curve" smooth="yes"/>
      <point x="733" y="67" type="line" smooth="yes"/>
      <point x="733" y="24"/>
      <point x="757" y="0"/>
    </contour>
  </outline>
</glyph>
<glyph name="U" format="1">
  <advance width="2212"/>
  <unicode hex="0055"/>
  <outline>
    <contour>
      <point x="1106" y="1438" type="move" name="top"/>
    </contour>
    <contour>
      <point x="1991" y="10" type="move" name="ogonek"/>
    </contour>
    <contour>
      <point x="1107" y="-41" type="curve" smooth="yes"/>
      <point x="1566" y="-41"/>
      <point x="2061" y="31"/>
      <point x="2061" y="649" type="curve" smooth="yes"/>
      <point x="2061" y="1371" type="line" smooth="yes"/>
      <point x="2061" y="1414"/>
      <point x="2037" y="1438"/>
      <point x="1994" y="1438" type="curve" smooth="yes"/>
      <point x="1915" y="1438" type="line" smooth="yes"/>
      <point x="1872" y="1438"/>
      <point x="1848" y="1414"/>
      <point x="1848" y="1371" type="curve" smooth="yes"/>
      <point x="1848" y="649" type="line" smooth="yes"/>
      <point x="1848" y="154"/>
      <point x="1501" y="121"/>
      <point x="1107" y="121" type="curve" smooth="yes"/>
      <point x="715" y="121"/>
      <point x="366" y="154"/>
      <point x="366" y="649" type="curve" smooth="yes"/>
      <point x="366" y="1371" type="line" smooth="yes"/>
      <point x="366" y="1414"/>
      <point x="363" y="1438"/>
      <point x="300" y="1438" type="curve" smooth="yes"/>
      <point x="221" y="1438" type="line" smooth="yes"/>
      <point x="198" y="1438"/>
      <point x="153" y="1414"/>
      <point x="153" y="1371" type="curve" smooth="yes"/>
      <point x="153" y="649" type="line" smooth="yes"/>
      <point x="153" y="31"/>
      <point x="650" y="-41"/>
    </contour>
  </outline>
</glyph>
<glyph name="V" format="1">
  <advance width="1935"/>
  <unicode hex="0056"/>
  <outline>
    <contour>
      <point x="949" y="0" type="curve" smooth="yes"/>
      <point x="1044" y="0" type="line" smooth="yes"/>
      <point x="1084" y="3"/>
      <point x="1117" y="26"/>
      <point x="1138" y="67" type="curve" smooth="yes"/>
      <point x="1828" y="1371" type="line" smooth="yes"/>
      <point x="1850" y="1414"/>
      <point x="1840" y="1438"/>
      <point x="1796" y="1438" type="curve" smooth="yes"/>
      <point x="1693" y="1438" type="line" smooth="yes"/>
      <point x="1650" y="1438"/>
      <point x="1612" y="1414"/>
      <point x="1591" y="1371" type="curve" smooth="yes"/>
      <point x="997" y="181" type="line"/>
      <point x="349" y="1371" type="line" smooth="yes"/>
      <point x="325" y="1414"/>
      <point x="286" y="1438"/>
      <point x="243" y="1438" type="curve" smooth="yes"/>
      <point x="131" y="1438" type="line" smooth="yes"/>
      <point x="88" y="1438"/>
      <point x="78" y="1414"/>
      <point x="103" y="1371" type="curve" smooth="yes"/>
      <point x="850" y="67" type="line" smooth="yes"/>
      <point x="874" y="26"/>
      <point x="909" y="3"/>
    </contour>
  </outline>
</glyph>
<glyph name="X" format="1">
  <advance width="1961"/>
  <unicode hex="0058"/>
  <outline>
    <contour>
      <point x="145" y="0" type="curve" smooth="yes"/>
      <point x="270" y="0" type="line" smooth="yes"/>
      <point x="313" y="0"/>
      <point x="358" y="24"/>
      <point x="397" y="67" type="curve" smooth="yes"/>
      <point x="995" y="623" type="line"/>
      <point x="1551" y="67" type="line" smooth="yes"/>
      <point x="1594" y="24"/>
      <point x="1641" y="0"/>
      <point x="1684" y="0" type="curve" smooth="yes"/>
      <point x="1812" y="0" type="line" smooth="yes"/>
      <point x="1834" y="0"/>
      <point x="1845" y="6"/>
      <point x="1845" y="18" type="curve" smooth="yes"/>
      <point x="1845" y="29"/>
      <point x="1834" y="46"/>
      <point x="1813" y="67" type="curve" smooth="yes"/>
      <point x="1130" y="748" type="line"/>
      <point x="1798" y="1371" type="line" smooth="yes"/>
      <point x="1817" y="1391"/>
      <point x="1826" y="1407"/>
      <point x="1826" y="1418" type="curve" smooth="yes"/>
      <point x="1826" y="1431"/>
      <point x="1815" y="1438"/>
      <point x="1792" y="1438" type="curve" smooth="yes"/>
      <point x="1656" y="1438" type="line" smooth="yes"/>
      <point x="1613" y="1438"/>
      <point x="1569" y="1414"/>
      <point x="1530" y="1371" type="curve" smooth="yes"/>
      <point x="1002" y="876" type="line"/>
      <point x="506" y="1371" type="line" smooth="yes"/>
      <point x="462" y="1414"/>
      <point x="416" y="1438"/>
      <point x="373" y="1438" type="curve" smooth="yes"/>
      <point x="245" y="1438" type="line" smooth="yes"/>
      <point x="223" y="1438"/>
      <point x="212" y="1432"/>
      <point x="212" y="1420" type="curve" smooth="yes"/>
      <point x="212" y="1409"/>
      <point x="224" y="1392"/>
      <point x="245" y="1371" type="curve" smooth="yes"/>
      <point x="867" y="750" type="line"/>
      <point x="138" y="67" type="line" smooth="yes"/>
      <point x="120" y="47"/>
      <point x="111" y="31"/>
      <point x="111" y="20" type="curve" smooth="yes"/>
      <point x="111" y="7"/>
      <point x="122" y="0"/>
    </contour>
  </outline>
</glyph>
<glyph name="bracketleft" format="1">
  <advance width="991"/>
  <unicode hex="005B"/>
  <outline>
    <contour>
      <point x="238" y="-62" type="curve" smooth="yes"/>
      <point x="799" y="-62" type="line" smooth="yes"/>
      <point x="842" y="-62"/>
      <point x="866" y="-48"/>
      <point x="866" y="-5" type="curve" smooth="yes"/>
      <point x="866" y="40" type="line" smooth="yes"/>
      <point x="866" y="83"/>
      <point x="842" y="96"/>
      <point x="799" y="96" type="curve" smooth="yes"/>
      <point x="405" y="96" type="line" smooth="yes"/>
      <point x="385" y="96"/>
      <point x="378" y="103"/>
      <point x="378" y="123" type="curve" smooth="yes"/>
      <point x="378" y="1319" type="line" smooth="yes"/>
      <point x="378" y="1339"/>
      <point x="385" y="1346"/>
      <point x="405" y="1346" type="curve" smooth="yes"/>
      <point x="799" y="1346" type="line" smooth="yes"/>
      <point x="842" y="1346"/>
      <point x="866" y="1360"/>
      <point x="866" y="1403" type="curve" smooth="yes"/>
      <point x="866" y="1457" type="line" smooth="yes"/>
      <point x="866" y="1500"/>
      <point x="842" y="1514"/>
      <point x="799" y="1514" type="curve" smooth="yes"/>
      <point x="238" y="1514" type="line" smooth="yes"/>
      <point x="195" y="1514"/>
      <point x="161" y="1480"/>
      <point x="161" y="1437" type="curve" smooth="yes"/>
      <point x="161" y="16" type="line" smooth="yes"/>
      <point x="161" y="-28"/>
      <point x="195" y="-62"/>
    </contour>
  </outline>
</glyph>
<glyph name="backslash" format="1">
  <advance width="1079"/>
  <unicode hex="005C"/>
  <outline>
    <contour>
      <point x="808" y="-205" type="curve" smooth="yes"/>
      <point x="962" y="-205" type="line" smooth="yes"/>
      <point x="980" y="-205"/>
      <point x="992" y="-187"/>
      <point x="986" y="-170" type="curve" smooth="yes"/>
      <point x="299" y="1612" type="line"/>
      <point x="291" y="1633"/>
      <point x="271" y="1647"/>
      <point x="249" y="1647" type="curve" smooth="yes"/>
      <point x="95" y="1647" type="line" smooth="yes"/>
      <point x="77" y="1647"/>
      <point x="65" y="1629"/>
      <point x="71" y="1612" type="curve" smooth="yes"/>
      <point x="758" y="-170" type="line" smooth="yes"/>
      <point x="766" y="-191"/>
      <point x="786" y="-205"/>
    </contour>
  </outline>
</glyph>
<glyph name="underscore" format="1">
  <advance width="1171"/>
  <unicode hex="005F"/>
  <outline>
    <contour>
      <point x="168" y="-145" type="curve" smooth="yes"/>
      <point x="1000" y="-145" type="line" smooth="yes"/>
      <point x="1043" y="-145"/>
      <point x="1064" y="-132"/>
      <point x="1064" y="-89" type="curve" smooth="yes"/>
      <point x="1064" y="-56" type="line" smooth="yes"/>
      <point x="1064" y="-13"/>
      <point x="1043" y="0"/>
      <point x="1000" y="0" type="curve" smooth="yes"/>
      <point x="168" y="0" type="line" smooth="yes"/>
      <point x="125" y="0"/>
      <point x="104" y="-13"/>
      <point x="104" y="-56" type="curve" smooth="yes"/>
      <point x="104" y="-89" type="line" smooth="yes"/>
      <point x="104" y="-132"/>
      <point x="125" y="-145"/>
    </contour>
  </outline>
</glyph>
<glyph name="a" format="1">
  <advance width="1680"/>
  <unicode hex="0061"/>
  <outline>
    <contour>
      <point x="840" y="1006" type="move" name="top"/>
    </contour>
    <contour>
      <point x="1512" y="10" type="move" name="ogonek"/>
    </contour>
    <contour>
      <point x="719" y="-41" type="curve" smooth="yes"/>
      <point x="1081" y="-41"/>
      <point x="1282" y="84"/>
      <point x="1354" y="241" type="curve" smooth="yes"/>
      <point x="1357" y="248"/>
      <point x="1362" y="273"/>
      <point x="1367" y="273" type="curve" smooth="yes"/>
      <point x="1373" y="273"/>
      <point x="1374" y="256"/>
      <point x="1378" y="235" type="curve" smooth="yes"/>
      <point x="1383" y="217"/>
      <point x="1387" y="170"/>
      <point x="1394" y="122" type="curve" smooth="yes"/>
      <point x="1405" y="43"/>
      <point x="1420" y="0"/>
      <point x="1460" y="0" type="curve" smooth="yes"/>
      <point x="1485" y="0" type="line" smooth="yes"/>
      <point x="1520" y="0"/>
      <point x="1536" y="31"/>
      <point x="1536" y="94" type="curve" smooth="yes"/>
      <point x="1536" y="570" type="line" smooth="yes"/>
      <point x="1536" y="898"/>
      <point x="1388" y="1052"/>
      <point x="878" y="1052" type="curve" smooth="yes"/>
      <point x="473" y="1052"/>
      <point x="282" y="987"/>
      <point x="189" y="846" type="curve" smooth="yes"/>
      <point x="182" y="835"/>
      <point x="178" y="820"/>
      <point x="178" y="802" type="curve" smooth="yes"/>
      <point x="178" y="785"/>
      <point x="193" y="767"/>
      <point x="210" y="765" type="curve" smooth="yes"/>
      <point x="298" y="749" type="line" smooth="yes"/>
      <point x="307" y="748"/>
      <point x="310" y="747"/>
      <point x="316" y="747" type="curve" smooth="yes"/>
      <point x="337" y="747"/>
      <point x="372" y="779"/>
      <point x="392" y="801" type="curve" smooth="yes"/>
      <point x="484" y="895"/>
      <point x="796" y="902"/>
      <point x="880" y="902" type="curve" smooth="yes"/>
      <point x="1239" y="902"/>
      <point x="1317" y="812"/>
      <point x="1317" y="656" type="curve" smooth="yes"/>
      <point x="1317" y="641" type="line" smooth="yes"/>
      <point x="1317" y="606"/>
      <point x="132" y="673"/>
      <point x="139" y="238" type="curve" smooth="yes"/>
      <point x="142" y="62"/>
      <point x="326" y="-41"/>
    </contour>
    <contour>
      <point x="729" y="101" type="curve" smooth="yes"/>
      <point x="454" y="101"/>
      <point x="369" y="154"/>
      <point x="367" y="250" type="curve" smooth="yes"/>
      <point x="364" y="383"/>
      <point x="518" y="451"/>
      <point x="1118" y="491" type="curve" smooth="yes"/>
      <point x="1123" y="492"/>
      <point x="1306" y="502"/>
      <point x="1309" y="502" type="curve" smooth="yes"/>
      <point x="1320" y="502"/>
      <point x="1320" y="499"/>
      <point x="1320" y="485" type="curve" smooth="yes"/>
      <point x="1320" y="206"/>
      <point x="1039" y="101"/>
    </contour>
  </outline>
</glyph>
<glyph name="c" format="1">
  <advance width="1538"/>
  <unicode hex="0063"/>
  <outline>
    <contour>
      <point x="769" y="1006" type="move" name="top"/>
    </contour>
    <contour>
      <point x="769" y="0" type="move" name="bottom"/>
    </contour>
    <contour>
      <point x="872" y="-41" type="curve" smooth="yes"/>
      <point x="1011" y="-41"/>
      <point x="1205" y="-3"/>
      <point x="1331" y="63" type="curve"/>
      <point x="1376" y="87"/>
      <point x="1372" y="104"/>
      <point x="1364" y="131" type="curve" smooth="yes"/>
      <point x="1356" y="158"/>
      <point x="1342" y="186"/>
      <point x="1340" y="192" type="curve" smooth="yes"/>
      <point x="1333" y="212"/>
      <point x="1311" y="220"/>
      <point x="1270" y="201" type="curve" smooth="yes"/>
      <point x="1204" y="170"/>
      <point x="1052" y="106"/>
      <point x="882" y="106" type="curve" smooth="yes"/>
      <point x="601" y="106"/>
      <point x="345" y="244"/>
      <point x="346" y="504" type="curve" smooth="yes"/>
      <point x="345" y="788"/>
      <point x="626" y="904"/>
      <point x="869" y="904" type="curve" smooth="yes"/>
      <point x="1072" y="904"/>
      <point x="1211" y="850"/>
      <point x="1292" y="806" type="curve" smooth="yes"/>
      <point x="1317" y="793"/>
      <point x="1348" y="770"/>
      <point x="1366" y="813" type="curve" smooth="yes"/>
      <point x="1366" y="812"/>
      <point x="1392" y="873"/>
      <point x="1392" y="872" type="curve" smooth="yes"/>
      <point x="1401" y="893"/>
      <point x="1397" y="912"/>
      <point x="1367" y="932" type="curve" smooth="yes"/>
      <point x="1230" y="1015"/>
      <point x="1032" y="1053"/>
      <point x="872" y="1053" type="curve" smooth="yes"/>
      <point x="546" y="1053"/>
      <point x="127" y="912"/>
      <point x="127" y="504" type="curve" smooth="yes"/>
      <point x="127" y="106"/>
      <point x="548" y="-41"/>
    </contour>
  </outline>
</glyph>
<glyph name="h" format="1">
  <advance width="1534"/>
  <unicode hex="0068"/>
  <outline>
    <contour>
      <point x="227" y="0" type="curve" smooth="yes"/>
      <point x="313" y="0" type="line" smooth="yes"/>
      <point x="356" y="0"/>
      <point x="379" y="24"/>
      <point x="379" y="67" type="curve" smooth="yes"/>
      <point x="379" y="609" type="line" smooth="yes"/>
      <point x="379" y="742"/>
      <point x="640" y="904"/>
      <point x="837" y="904" type="curve" smooth="yes"/>
      <point x="1023" y="904"/>
      <point x="1173" y="836"/>
      <point x="1173" y="609" type="curve" smooth="yes"/>
      <point x="1173" y="67" type="line" smooth="yes"/>
      <point x="1173" y="24"/>
      <point x="1197" y="0"/>
      <point x="1240" y="0" type="curve" smooth="yes"/>
      <point x="1324" y="0" type="line" smooth="yes"/>
      <point x="1367" y="0"/>
      <point x="1391" y="24"/>
      <point x="1391" y="67" type="curve" smooth="yes"/>
      <point x="1391" y="553" type="line" smooth="yes"/>
      <point x="1391" y="889"/>
      <point x="1186" y="1052"/>
      <point x="875" y="1052" type="curve" smooth="yes"/>
      <point x="694" y="1052"/>
      <point x="517" y="993"/>
      <point x="388" y="846" type="curve" smooth="yes"/>
      <point x="388" y="846"/>
      <point x="379" y="852"/>
      <point x="379" y="852" type="curve" smooth="yes"/>
      <point x="379" y="1371" type="line" smooth="yes"/>
      <point x="379" y="1414"/>
      <point x="355" y="1438"/>
      <point x="312" y="1438" type="curve" smooth="yes"/>
      <point x="227" y="1438" type="line" smooth="yes"/>
      <point x="184" y="1438"/>
      <point x="160" y="1414"/>
      <point x="160" y="1371" type="curve" smooth="yes"/>
      <point x="160" y="67" type="line" smooth="yes"/>
      <point x="160" y="24"/>
      <point x="184" y="0"/>
    </contour>
    <contour>
      <point x="767" y="1006" type="move" name="top"/>
    </contour>
    <contour>
      <point x="767" y="503" type="move" name="center"/>
    </contour>
  </outline>
</glyph>
<glyph name="i" format="1">
  <advance width="538"/>
  <unicode hex="0069"/>
  <outline>
    <contour>
      <point x="227" y="0" type="curve" smooth="yes"/>
      <point x="312" y="0" type="line" smooth="yes"/>
      <point x="355" y="0"/>
      <point x="379" y="24"/>
      <point x="379" y="67" type="curve" smooth="yes"/>
      <point x="379" y="939" type="line" smooth="yes"/>
      <point x="379" y="982"/>
      <point x="355" y="1006"/>
      <point x="312" y="1006" type="curve" smooth="yes"/>
      <point x="227" y="1006" type="line" smooth="yes"/>
      <point x="184" y="1006"/>
      <point x="160" y="982"/>
      <point x="160" y="939" type="curve" smooth="yes"/>
      <point x="160" y="67" type="line" smooth="yes"/>
      <point x="160" y="24"/>
      <point x="184" y="0"/>
    </contour>
    <contour>
      <point x="227" y="1180" type="curve" smooth="yes"/>
      <point x="312" y="1180" type="line" smooth="yes"/>
      <point x="355" y="1180"/>
      <point x="379" y="1203"/>
      <point x="379" y="1246" type="curve" smooth="yes"/>
      <point x="379" y="1341" type="line" smooth="yes"/>
      <point x="379" y="1384"/>
      <point x="355" y="1408"/>
      <point x="312" y="1408" type="curve" smooth="yes"/>
      <point x="227" y="1408" type="line" smooth="yes"/>
      <point x="184" y="1408"/>
      <point x="160" y="1384"/>
      <point x="160" y="1341" type="curve" smooth="yes"/>
      <point x="160" y="1246" type="line" smooth="yes"/>
      <point x="160" y="1203"/>
      <point x="184" y="1180"/>
    </contour>
  </outline>
</glyph>
<glyph name="j" format="1">
  <advance width="774"/>
  <unicode hex="006A"/>
  <outline>
    <contour>
      <point x="97" y="-379" type="curve"/>
      <point x="82" y="-380"/>
      <point x="167" y="-386"/>
      <point x="167" y="-401" type="curve" smooth="yes"/>
      <point x="488" y="-401"/>
      <point x="612" y="-319"/>
      <point x="614" y="-40" type="curve" smooth="yes"/>
      <point x="614" y="-43"/>
      <point x="616" y="936"/>
      <point x="618" y="936" type="curve" smooth="yes"/>
      <point x="618" y="981"/>
      <point x="607" y="1006"/>
      <point x="561" y="1006" type="curve" smooth="yes"/>
      <point x="564" y="1006"/>
      <point x="466" y="1007"/>
      <point x="466" y="1010" type="curve" smooth="yes"/>
      <point x="421" y="1010"/>
      <point x="396" y="1029"/>
      <point x="396" y="984" type="curve" smooth="yes"/>
      <point x="396" y="991"/>
      <point x="399" y="104"/>
      <point x="406" y="104" type="curve" smooth="yes"/>
      <point x="407" y="-91"/>
      <point x="415" y="-207"/>
      <point x="239" y="-207" type="curve" smooth="yes"/>
      <point x="241" y="-207"/>
      <point x="112" y="-206"/>
      <point x="112" y="-204" type="curve" smooth="yes"/>
      <point x="67" y="-204"/>
      <point x="50" y="-218"/>
      <point x="50" y="-263" type="curve" smooth="yes"/>
      <point x="50" y="-261"/>
      <point x="48" y="-309"/>
      <point x="46" y="-309" type="curve" smooth="yes"/>
      <point x="44" y="-354"/>
      <point x="55" y="-379"/>
    </contour>
    <contour>
      <point x="456" y="1180" type="curve" smooth="yes"/>
      <point x="541" y="1180" type="line" smooth="yes"/>
      <point x="584" y="1180"/>
      <point x="607" y="1203"/>
      <point x="607" y="1246" type="curve" smooth="yes"/>
      <point x="607" y="1341" type="line" smooth="yes"/>
      <point x="607" y="1384"/>
      <point x="584" y="1408"/>
      <point x="541" y="1408" type="curve" smooth="yes"/>
      <point x="456" y="1408" type="line" smooth="yes"/>
      <point x="413" y="1408"/>
      <point x="389" y="1384"/>
      <point x="389" y="1341" type="curve" smooth="yes"/>
      <point x="389" y="1246" type="line" smooth="yes"/>
      <point x="389" y="1203"/>
      <point x="413" y="1180"/>
    </contour>
  </outline>
</glyph>
<glyph name="l" format="1">
  <advance width="538"/>
  <unicode hex="006C"/>
  <outline>
    <contour>
      <point x="227" y="0" type="curve" smooth="yes"/>
      <point x="312" y="0" type="line" smooth="yes"/>
      <point x="355" y="0"/>
      <point x="378" y="24"/>
      <point x="378" y="67" type="curve" smooth="yes"/>
      <point x="378" y="1370" type="line" smooth="yes"/>
      <point x="378" y="1413"/>
      <point x="355" y="1437"/>
      <point x="312" y="1437" type="curve" smooth="yes"/>
      <point x="227" y="1437" type="line" smooth="yes"/>
      <point x="184" y="1437"/>
      <point x="160" y="1413"/>
      <point x="160" y="1370" type="curve" smooth="yes"/>
      <point x="160" y="67" type="line" smooth="yes"/>
      <point x="160" y="24"/>
      <point x="184" y="0"/>
    </contour>
    <contour>
      <point x="269" y="1006" type="move" name="top"/>
    </contour>
    <contour>
      <point x="518" y="1006" type="move" name="topright"/>
    </contour>
    <contour>
      <point x="269" y="0" type="move" name="bottom"/>
    </contour>
  </outline>
</glyph>
<glyph name="o" format="1">
  <advance width="1639"/>
  <unicode hex="006F"/>
  <outline>
    <contour>
      <point x="820" y="1006" type="move" name="top"/>
    </contour>
    <contour>
      <point x="821" y="108" type="curve" smooth="yes"/>
      <point x="561" y="108"/>
      <point x="347" y="244"/>
      <point x="348" y="504" type="curve" smooth="yes"/>
      <point x="347" y="789"/>
      <point x="578" y="903"/>
      <point x="821" y="903" type="curve" smooth="yes"/>
      <point x="1060" y="903"/>
      <point x="1291" y="791"/>
      <point x="1291" y="504" type="curve" smooth="yes"/>
      <point x="1291" y="241"/>
      <point x="1076" y="108"/>
    </contour>
    <contour>
      <point x="822" y="-41" type="curve" smooth="yes"/>
      <point x="1114" y="-41"/>
      <point x="1511" y="110"/>
      <point x="1511" y="504" type="curve" smooth="yes"/>
      <point x="1511" y="910"/>
      <point x="1145" y="1052"/>
      <point x="822" y="1052" type="curve" smooth="yes"/>
      <point x="493" y="1052"/>
      <point x="128" y="910"/>
      <point x="128" y="504" type="curve" smooth="yes"/>
      <point x="128" y="109"/>
      <point x="525" y="-41"/>
    </contour>
  </outline>
</glyph>
<glyph name="p" format="1">
  <advance width="1663"/>
  <unicode hex="0070"/>
  <outline>
    <contour>
      <point x="220" y="-430" type="curve" smooth="yes"/>
      <point x="305" y="-430" type="line" smooth="yes"/>
      <point x="348" y="-430"/>
      <point x="372" y="-406"/>
      <point x="372" y="-363" type="curve" smooth="yes"/>
      <point x="372" y="150" type="line" smooth="yes"/>
      <point x="372" y="155"/>
      <point x="373" y="157"/>
      <point x="375" y="157" type="curve" smooth="yes"/>
      <point x="377" y="157"/>
      <point x="380" y="155"/>
      <point x="382" y="152" type="curve" smooth="yes"/>
      <point x="490" y="22"/>
      <point x="660" y="-42"/>
      <point x="857" y="-42" type="curve" smooth="yes"/>
      <point x="1181" y="-42"/>
      <point x="1534" y="98"/>
      <point x="1534" y="507" type="curve" smooth="yes"/>
      <point x="1534" y="905"/>
      <point x="1169" y="1052"/>
      <point x="877" y="1052" type="curve" smooth="yes"/>
      <point x="679" y="1052"/>
      <point x="462" y="968"/>
      <point x="345" y="806" type="curve" smooth="yes"/>
      <point x="341" y="802"/>
      <point x="337" y="800"/>
      <point x="335" y="800" type="curve" smooth="yes"/>
      <point x="330" y="800"/>
      <point x="328" y="805"/>
      <point x="326" y="811" type="curve" smooth="yes"/>
      <point x="314" y="845"/>
      <point x="306" y="878"/>
      <point x="294" y="917" type="curve" smooth="yes"/>
      <point x="271" y="990"/>
      <point x="248" y="1011"/>
      <point x="217" y="1011" type="curve" smooth="yes"/>
      <point x="205" y="1011" type="line" smooth="yes"/>
      <point x="162" y="1011"/>
      <point x="153" y="988"/>
      <point x="153" y="945" type="curve" smooth="yes"/>
      <point x="153" y="-363" type="line" smooth="yes"/>
      <point x="153" y="-406"/>
      <point x="177" y="-430"/>
    </contour>
    <contour>
      <point x="845" y="107" type="curve" smooth="yes"/>
      <point x="602" y="107"/>
      <point x="371" y="222"/>
      <point x="372" y="507" type="curve" smooth="yes"/>
      <point x="371" y="768"/>
      <point x="585" y="904"/>
      <point x="845" y="904" type="curve" smooth="yes"/>
      <point x="1101" y="904"/>
      <point x="1316" y="772"/>
      <point x="1316" y="507" type="curve" smooth="yes"/>
      <point x="1316" y="220"/>
      <point x="1084" y="107"/>
    </contour>
  </outline>
</glyph>
<glyph name="t" format="1">
  <advance width="1171"/>
  <unicode hex="0074"/>
  <outline>
    <contour>
      <point x="707" y="-41" type="curve" smooth="yes"/>
      <point x="816" y="-41"/>
      <point x="905" y="-26"/>
      <point x="984" y="5" type="curve" smooth="yes"/>
      <point x="1025" y="21"/>
      <point x="1046" y="36"/>
      <point x="1034" y="78" type="curve" smooth="yes"/>
      <point x="1025" y="106" type="line" smooth="yes"/>
      <point x="1015" y="141"/>
      <point x="1008" y="163"/>
      <point x="951" y="144" type="curve" smooth="yes"/>
      <point x="890" y="124"/>
      <point x="816" y="107"/>
      <point x="748" y="107" type="curve" smooth="yes"/>
      <point x="596" y="107"/>
      <point x="522" y="163"/>
      <point x="522" y="301" type="curve" smooth="yes"/>
      <point x="522" y="823" type="line" smooth="yes"/>
      <point x="522" y="843"/>
      <point x="529" y="850"/>
      <point x="549" y="850" type="curve" smooth="yes"/>
      <point x="932" y="850" type="line" smooth="yes"/>
      <point x="975" y="850"/>
      <point x="998" y="873"/>
      <point x="998" y="916" type="curve" smooth="yes"/>
      <point x="998" y="939" type="line" smooth="yes"/>
      <point x="998" y="982"/>
      <point x="975" y="1006"/>
      <point x="932" y="1006" type="curve" smooth="yes"/>
      <point x="549" y="1006" type="line" smooth="yes"/>
      <point x="529" y="1006"/>
      <point x="522" y="1013"/>
      <point x="522" y="1033" type="curve" smooth="yes"/>
      <point x="522" y="1408" type="line" smooth="yes"/>
      <point x="522" y="1451"/>
      <point x="499" y="1475"/>
      <point x="456" y="1475" type="curve" smooth="yes"/>
      <point x="391" y="1475" type="line" smooth="yes"/>
      <point x="348" y="1475"/>
      <point x="333" y="1450"/>
      <point x="324" y="1408" type="curve"/>
      <point x="305" y="1033" type="line"/>
      <point x="305" y="1013"/>
      <point x="298" y="1006"/>
      <point x="278" y="1006" type="curve" smooth="yes"/>
      <point x="148" y="1006" type="line" smooth="yes"/>
      <point x="105" y="1006"/>
      <point x="81" y="982"/>
      <point x="81" y="939" type="curve" smooth="yes"/>
      <point x="81" y="916" type="line" smooth="yes"/>
      <point x="81" y="873"/>
      <point x="105" y="850"/>
      <point x="148" y="850" type="curve" smooth="yes"/>
      <point x="278" y="850" type="line" smooth="yes"/>
      <point x="298" y="850"/>
      <point x="305" y="843"/>
      <point x="305" y="823" type="curve" smooth="yes"/>
      <point x="305" y="331" type="line" smooth="yes"/>
      <point x="305" y="109"/>
      <point x="425" y="-41"/>
    </contour>
    <contour>
      <point x="568" y="503" type="move" name="center"/>
    </contour>
    <contour>
      <point x="568" y="0" type="move" name="bottom"/>
    </contour>
  </outline>
</glyph>
<glyph name="x" format="1">
  <advance width="1698"/>
  <unicode hex="0078"/>
  <outline>
    <contour>
      <point x="155" y="0" type="curve" smooth="yes"/>
      <point x="273" y="0" type="line" smooth="yes"/>
      <point x="320" y="0"/>
      <point x="374" y="18"/>
      <point x="411" y="47" type="curve" smooth="yes"/>
      <point x="486" y="104"/>
      <point x="645" y="230"/>
      <point x="832" y="380" type="curve" smooth="yes"/>
      <point x="843" y="385"/>
      <point x="851" y="386"/>
      <point x="855" y="386" type="curve" smooth="yes"/>
      <point x="863" y="386"/>
      <point x="866" y="383"/>
      <point x="870" y="380" type="curve" smooth="yes"/>
      <point x="1057" y="229"/>
      <point x="1217" y="99"/>
      <point x="1278" y="50" type="curve" smooth="yes"/>
      <point x="1314" y="21"/>
      <point x="1366" y="0"/>
      <point x="1413" y="0" type="curve" smooth="yes"/>
      <point x="1535" y="0" type="line" smooth="yes"/>
      <point x="1552" y="0"/>
      <point x="1563" y="14"/>
      <point x="1563" y="28" type="curve" smooth="yes"/>
      <point x="1563" y="35"/>
      <point x="1560" y="42"/>
      <point x="1553" y="48" type="curve" smooth="yes"/>
      <point x="1332" y="223"/>
      <point x="1158" y="363"/>
      <point x="998" y="492" type="curve" smooth="yes"/>
      <point x="994" y="498"/>
      <point x="993" y="503"/>
      <point x="993" y="505" type="curve" smooth="yes"/>
      <point x="993" y="509"/>
      <point x="995" y="511"/>
      <point x="998" y="513" type="curve" smooth="yes"/>
      <point x="1203" y="680"/>
      <point x="1403" y="842"/>
      <point x="1548" y="960" type="curve" smooth="yes"/>
      <point x="1555" y="965"/>
      <point x="1559" y="973"/>
      <point x="1559" y="981" type="curve" smooth="yes"/>
      <point x="1559" y="994"/>
      <point x="1549" y="1006"/>
      <point x="1533" y="1006" type="curve" smooth="yes"/>
      <point x="1404" y="1006" type="line" smooth="yes"/>
      <point x="1357" y="1006"/>
      <point x="1335" y="987"/>
      <point x="1298" y="958" type="curve"/>
      <point x="1228" y="902"/>
      <point x="1070" y="775"/>
      <point x="865" y="616" type="curve" smooth="yes"/>
      <point x="858" y="613"/>
      <point x="855" y="612"/>
      <point x="852" y="612" type="curve" smooth="yes"/>
      <point x="847" y="612"/>
      <point x="844" y="614"/>
      <point x="842" y="616" type="curve" smooth="yes"/>
      <point x="631" y="785"/>
      <point x="492" y="898"/>
      <point x="419" y="956" type="curve" smooth="yes"/>
      <point x="382" y="985"/>
      <point x="355" y="1006"/>
      <point x="308" y="1006" type="curve" smooth="yes"/>
      <point x="179" y="1006" type="line" smooth="yes"/>
      <point x="162" y="1006"/>
      <point x="151" y="992"/>
      <point x="151" y="978" type="curve" smooth="yes"/>
      <point x="151" y="971"/>
      <point x="154" y="963"/>
      <point x="161" y="958" type="curve" smooth="yes"/>
      <point x="243" y="890"/>
      <point x="468" y="707"/>
      <point x="709" y="511" type="curve" smooth="yes"/>
      <point x="712" y="506"/>
      <point x="714" y="503"/>
      <point x="714" y="500" type="curve" smooth="yes"/>
      <point x="714" y="496"/>
      <point x="711" y="495"/>
      <point x="709" y="493" type="curve" smooth="yes"/>
      <point x="523" y="347"/>
      <point x="332" y="197"/>
      <point x="139" y="46" type="curve" smooth="yes"/>
      <point x="132" y="41"/>
      <point x="129" y="33"/>
      <point x="129" y="26" type="curve" smooth="yes"/>
      <point x="129" y="13"/>
      <point x="139" y="0"/>
    </contour>
  </outline>
</glyph>
<glyph name="braceright" format="1">
  <advance width="927"/>
  <unicode hex="007D"/>
  <outline>
    <contour>
      <point x="198" y="-119" type="curve" smooth="yes"/>
      <point x="242" y="-119" type="line" smooth="yes"/>
      <point x="470" y="-119"/>
      <point x="516" y="-7"/>
      <point x="515" y="219" type="curve" smooth="yes"/>
      <point x="514" y="549"/>
      <point x="552" y="610"/>
      <point x="647" y="609" type="curve" smooth="yes"/>
      <point x="647" y="608"/>
      <point x="710" y="608"/>
      <point x="710" y="608" type="curve" smooth="yes"/>
      <point x="779" y="608"/>
      <point x="802" y="622"/>
      <point x="802" y="712" type="curve" smooth="yes"/>
      <point x="802" y="802"/>
      <point x="779" y="816"/>
      <point x="710" y="816" type="curve" smooth="yes"/>
      <point x="710" y="816"/>
      <point x="647" y="816"/>
      <point x="647" y="816" type="curve" smooth="yes"/>
      <point x="552" y="814"/>
      <point x="514" y="875"/>
      <point x="515" y="1205" type="curve" smooth="yes"/>
      <point x="516" y="1431"/>
      <point x="470" y="1543"/>
      <point x="242" y="1543" type="curve" smooth="yes"/>
      <point x="198" y="1543" type="line" smooth="yes"/>
      <point x="156" y="1543"/>
      <point x="121" y="1529"/>
      <point x="121" y="1487" type="curve" smooth="yes"/>
      <point x="121" y="1438" type="line" smooth="yes"/>
      <point x="121" y="1386"/>
      <point x="145" y="1374"/>
      <point x="197" y="1375" type="curve" smooth="yes"/>
      <point x="309" y="1375"/>
      <point x="347" y="1354"/>
      <point x="347" y="1177" type="curve" smooth="yes"/>
      <point x="347" y="1172" type="line" smooth="yes"/>
      <point x="347" y="1008"/>
      <point x="346" y="753"/>
      <point x="472" y="725" type="curve" smooth="yes"/>
      <point x="479" y="723"/>
      <point x="482" y="718"/>
      <point x="482" y="712" type="curve" smooth="yes"/>
      <point x="482" y="706"/>
      <point x="479" y="701"/>
      <point x="472" y="699" type="curve" smooth="yes"/>
      <point x="347" y="671"/>
      <point x="347" y="416"/>
      <point x="347" y="252" type="curve" smooth="yes"/>
      <point x="347" y="247" type="line" smooth="yes"/>
      <point x="347" y="70"/>
      <point x="309" y="49"/>
      <point x="197" y="49" type="curve" smooth="yes"/>
      <point x="145" y="50"/>
      <point x="121" y="38"/>
      <point x="121" y="-14" type="curve" smooth="yes"/>
      <point x="121" y="-62" type="line" smooth="yes"/>
      <point x="121" y="-104"/>
      <point x="156" y="-119"/>
    </contour>
  </outline>
</glyph>
<glyph name="cent" format="1">
  <advance width="1540"/>
  <unicode hex="00A2"/>
  <outline>
    <contour>
      <point x="833" y="-204" type="curve" smooth="yes"/>
      <point x="858" y="-204" type="line" smooth="yes"/>
      <point x="901" y="-204"/>
      <point x="925" y="-190"/>
      <point x="925" y="-147" type="curve" smooth="yes"/>
      <point x="925" y="-40" type="line"/>
      <point x="1057" y="-31"/>
      <point x="1214" y="8"/>
      <point x="1323" y="62" type="curve" smooth="yes"/>
      <point x="1367" y="83"/>
      <point x="1372" y="107"/>
      <point x="1364" y="134" type="curve" smooth="yes"/>
      <point x="1356" y="162"/>
      <point x="1349" y="186"/>
      <point x="1347" y="192" type="curve" smooth="yes"/>
      <point x="1340" y="211"/>
      <point x="1312" y="220"/>
      <point x="1271" y="201" type="curve" smooth="yes"/>
      <point x="1211" y="173"/>
      <point x="1079" y="116"/>
      <point x="925" y="107" type="curve"/>
      <point x="925" y="903" type="line"/>
      <point x="1099" y="894"/>
      <point x="1221" y="846"/>
      <point x="1294" y="806" type="curve" smooth="yes"/>
      <point x="1319" y="792"/>
      <point x="1350" y="769"/>
      <point x="1368" y="813" type="curve"/>
      <point x="1368" y="812"/>
      <point x="1394" y="873"/>
      <point x="1394" y="872" type="curve" smooth="yes"/>
      <point x="1403" y="894"/>
      <point x="1399" y="913"/>
      <point x="1368" y="932" type="curve" smooth="yes"/>
      <point x="1246" y="1007"/>
      <point x="1075" y="1045"/>
      <point x="925" y="1053" type="curve"/>
      <point x="925" y="1214" type="line" smooth="yes"/>
      <point x="925" y="1257"/>
      <point x="901" y="1271"/>
      <point x="858" y="1271" type="curve" smooth="yes"/>
      <point x="833" y="1271" type="line" smooth="yes"/>
      <point x="790" y="1271"/>
      <point x="766" y="1259"/>
      <point x="766" y="1216" type="curve" smooth="yes"/>
      <point x="766" y="1049" type="line"/>
      <point x="462" y="1021"/>
      <point x="128" y="869"/>
      <point x="128" y="504" type="curve" smooth="yes"/>
      <point x="128" y="148"/>
      <point x="464" y="-7"/>
      <point x="766" y="-37" type="curve"/>
      <point x="766" y="-145" type="line" smooth="yes"/>
      <point x="766" y="-188"/>
      <point x="790" y="-204"/>
    </contour>
    <contour>
      <point x="766" y="114" type="line"/>
      <point x="535" y="148"/>
      <point x="346" y="281"/>
      <point x="347" y="504" type="curve" smooth="yes"/>
      <point x="346" y="749"/>
      <point x="553" y="868"/>
      <point x="766" y="897" type="curve"/>
    </contour>
  </outline>
</glyph>
<glyph name="dieresis" format="1">
  <advance width="683"/>
  <unicode hex="00A8"/>
  <outline>
    <contour>
      <point x="657" y="1006" type="move" name="_top"/>
    </contour>
    <contour>
      <point x="294" y="-61" type="curve" smooth="yes"/>
      <point x="421" y="-61" type="line" smooth="yes"/>
      <point x="464" y="-61"/>
      <point x="498" y="-27"/>
      <point x="498" y="16" type="curve" smooth="yes"/>
      <point x="498" y="111" type="line" smooth="yes"/>
      <point x="498" y="154"/>
      <point x="464" y="188"/>
      <point x="421" y="188" type="curve" smooth="yes"/>
      <point x="294" y="188" type="line" smooth="yes"/>
      <point x="251" y="188"/>
      <point x="217" y="154"/>
      <point x="217" y="111" type="curve" smooth="yes"/>
      <point x="217" y="16" type="line" smooth="yes"/>
      <point x="217" y="-27"/>
      <point x="251" y="-61"/>
    </contour>
    <contour>
      <point x="893" y="-61" type="curve" smooth="yes"/>
      <point x="1020" y="-61" type="line" smooth="yes"/>
      <point x="1063" y="-61"/>
      <point x="1097" y="-27"/>
      <point x="1097" y="16" type="curve" smooth="yes"/>
      <point x="1097" y="111" type="line" smooth="yes"/>
      <point x="1097" y="154"/>
      <point x="1063" y="188"/>
      <point x="1020" y="188" type="curve" smooth="yes"/>
      <point x="893" y="188" type="line" smooth="yes"/>
      <point x="850" y="188"/>
      <point x="816" y="154"/>
      <point x="816" y="111" type="curve" smooth="yes"/>
      <point x="816" y="16" type="line" smooth="yes"/>
      <point x="816" y="-27"/>
      <point x="850" y="-61"/>
    </contour>
  </outline>
</glyph>
<glyph name="copyright" format="1">
  <advance width="1899"/>
  <unicode hex="00A9"/>
  <outline>
    <contour>
      <point x="969" y="325" type="curve" smooth="yes"/>
      <point x="1077" y="325"/>
      <point x="1188" y="351"/>
      <point x="1270" y="389" type="curve" smooth="yes"/>
      <point x="1290" y="398"/>
      <point x="1303" y="429"/>
      <point x="1294" y="457" type="curve"/>
      <point x="1291" y="470"/>
      <point x="1286" y="483"/>
      <point x="1282" y="497" type="curve"/>
      <point x="1276" y="522"/>
      <point x="1255" y="536"/>
      <point x="1235" y="526" type="curve"/>
      <point x="1164" y="499"/>
      <point x="1066" y="474"/>
      <point x="976" y="474" type="curve" smooth="yes"/>
      <point x="818" y="474"/>
      <point x="683" y="544"/>
      <point x="683" y="725" type="curve" smooth="yes"/>
      <point x="683" y="894"/>
      <point x="818" y="967"/>
      <point x="982" y="967" type="curve" smooth="yes"/>
      <point x="1066" y="967"/>
      <point x="1160" y="940"/>
      <point x="1227" y="911" type="curve"/>
      <point x="1249" y="900"/>
      <point x="1272" y="918"/>
      <point x="1281" y="947" type="curve"/>
      <point x="1284" y="960"/>
      <point x="1292" y="981"/>
      <point x="1292" y="997" type="curve" smooth="yes"/>
      <point x="1292" y="1019"/>
      <point x="1285" y="1038"/>
      <point x="1265" y="1048" type="curve" smooth="yes"/>
      <point x="1185" y="1093"/>
      <point x="1068" y="1122"/>
      <point x="952" y="1122" type="curve" smooth="yes"/>
      <point x="758" y="1122"/>
      <point x="508" y="1011"/>
      <point x="508" y="726" type="curve" smooth="yes"/>
      <point x="508" y="444"/>
      <point x="737" y="325"/>
    </contour>
    <contour>
      <point x="952" y="80" type="curve" smooth="yes"/>
      <point x="470" y="80"/>
      <point x="290" y="419"/>
      <point x="290" y="713" type="curve" smooth="yes"/>
      <point x="290" y="1019"/>
      <point x="470" y="1350"/>
      <point x="952" y="1350" type="curve" smooth="yes"/>
      <point x="1433" y="1350"/>
      <point x="1613" y="1019"/>
      <point x="1613" y="713" type="curve" smooth="yes"/>
      <point x="1613" y="419"/>
      <point x="1433" y="80"/>
    </contour>
    <contour>
      <point x="949" y="-41" type="curve" smooth="yes"/>
      <point x="1493" y="-41"/>
      <point x="1765" y="318"/>
      <point x="1765" y="717" type="curve" smooth="yes"/>
      <point x="1765" y="1116"/>
      <point x="1493" y="1475"/>
      <point x="949" y="1475" type="curve" smooth="yes"/>
      <point x="405" y="1475"/>
      <point x="133" y="1116"/>
      <point x="133" y="717" type="curve" smooth="yes"/>
      <point x="133" y="318"/>
      <point x="405" y="-41"/>
    </contour>
  </outline>
</glyph>
<glyph name="ordfeminine" format="1">
  <advance width="1671"/>
  <unicode hex="00AA"/>
  <outline>
    <contour>
      <point x="508" y="534" type="curve" smooth="yes"/>
      <point x="822" y="534"/>
      <point x="994" y="641"/>
      <point x="1056" y="776" type="curve" smooth="yes"/>
      <point x="1058" y="782"/>
      <point x="1063" y="804"/>
      <point x="1067" y="804" type="curve" smooth="yes"/>
      <point x="1072" y="804"/>
      <point x="1073" y="789"/>
      <point x="1076" y="771" type="curve" smooth="yes"/>
      <point x="1081" y="755"/>
      <point x="1084" y="715"/>
      <point x="1089" y="674" type="curve" smooth="yes"/>
      <point x="1100" y="606"/>
      <point x="1112" y="569"/>
      <point x="1146" y="569" type="curve" smooth="yes"/>
      <point x="1168" y="569" type="line" smooth="yes"/>
      <point x="1198" y="569"/>
      <point x="1212" y="596"/>
      <point x="1212" y="650" type="curve" smooth="yes"/>
      <point x="1212" y="1059" type="line" smooth="yes"/>
      <point x="1212" y="1341"/>
      <point x="1084" y="1474"/>
      <point x="646" y="1474" type="curve" smooth="yes"/>
      <point x="298" y="1474"/>
      <point x="134" y="1418"/>
      <point x="54" y="1297" type="curve" smooth="yes"/>
      <point x="48" y="1287"/>
      <point x="44" y="1274"/>
      <point x="44" y="1259" type="curve" smooth="yes"/>
      <point x="44" y="1244"/>
      <point x="57" y="1229"/>
      <point x="72" y="1227" type="curve" smooth="yes"/>
      <point x="147" y="1213" type="line" smooth="yes"/>
      <point x="155" y="1212"/>
      <point x="158" y="1211"/>
      <point x="163" y="1211" type="curve" smooth="yes"/>
      <point x="181" y="1211"/>
      <point x="210" y="1239"/>
      <point x="228" y="1258" type="curve" smooth="yes"/>
      <point x="307" y="1339"/>
      <point x="575" y="1344"/>
      <point x="647" y="1344" type="curve" smooth="yes"/>
      <point x="956" y="1344"/>
      <point x="1024" y="1267"/>
      <point x="1024" y="1133" type="curve" smooth="yes"/>
      <point x="1024" y="1120" type="line" smooth="yes"/>
      <point x="1024" y="1091"/>
      <point x="4" y="1148"/>
      <point x="11" y="774" type="curve" smooth="yes"/>
      <point x="13" y="622"/>
      <point x="170" y="534"/>
    </contour>
    <contour>
      <point x="518" y="656" type="curve" smooth="yes"/>
      <point x="281" y="656"/>
      <point x="208" y="702"/>
      <point x="207" y="785" type="curve" smooth="yes"/>
      <point x="204" y="899"/>
      <point x="336" y="957"/>
      <point x="852" y="991" type="curve"/>
      <point x="857" y="992"/>
      <point x="1014" y="1001"/>
      <point x="1017" y="1001" type="curve" smooth="yes"/>
      <point x="1026" y="1001"/>
      <point x="1026" y="998"/>
      <point x="1026" y="986" type="curve" smooth="yes"/>
      <point x="1026" y="746"/>
      <point x="784" y="656"/>
    </contour>
  </outline>
</glyph>
<glyph name="registered" format="1">
  <advance width="1899"/>
  <unicode hex="00AE"/>
  <outline>
    <contour>
      <point x="599" y="387" type="curve" smooth="yes"/>
      <point x="704" y="387" type="line" smooth="yes"/>
      <point x="722" y="387"/>
      <point x="736" y="403"/>
      <point x="736" y="422" type="curve" smooth="yes"/>
      <point x="736" y="631" type="line" smooth="yes"/>
      <point x="736" y="641"/>
      <point x="744" y="649"/>
      <point x="752" y="649" type="curve" smooth="yes"/>
      <point x="1054" y="649" type="line" smooth="yes"/>
      <point x="1111" y="649"/>
      <point x="1127" y="649"/>
      <point x="1148" y="616" type="curve" smooth="yes"/>
      <point x="1181" y="570"/>
      <point x="1191" y="471"/>
      <point x="1204" y="418" type="curve"/>
      <point x="1209" y="394"/>
      <point x="1219" y="387"/>
      <point x="1245" y="387" type="curve" smooth="yes"/>
      <point x="1347" y="387" type="line" smooth="yes"/>
      <point x="1359" y="387"/>
      <point x="1364" y="397"/>
      <point x="1364" y="409" type="curve" smooth="yes"/>
      <point x="1364" y="419"/>
      <point x="1359" y="444"/>
      <point x="1356" y="472" type="curve" smooth="yes"/>
      <point x="1345" y="589"/>
      <point x="1316" y="668"/>
      <point x="1230" y="688" type="curve" smooth="yes"/>
      <point x="1229" y="688"/>
      <point x="1229" y="689"/>
      <point x="1229" y="690" type="curve" smooth="yes"/>
      <point x="1229" y="691"/>
      <point x="1229" y="692"/>
      <point x="1230" y="692" type="curve" smooth="yes"/>
      <point x="1305" y="705"/>
      <point x="1368" y="755"/>
      <point x="1368" y="853" type="curve" smooth="yes"/>
      <point x="1368" y="1047"/>
      <point x="1202" y="1049"/>
      <point x="991" y="1049" type="curve" smooth="yes"/>
      <point x="599" y="1049" type="line" smooth="yes"/>
      <point x="581" y="1049"/>
      <point x="567" y="1034"/>
      <point x="567" y="1014" type="curve" smooth="yes"/>
      <point x="567" y="422" type="line" smooth="yes"/>
      <point x="567" y="403"/>
      <point x="581" y="387"/>
    </contour>
    <contour>
      <point x="752" y="753" type="line"/>
      <point x="744" y="753"/>
      <point x="736" y="761"/>
      <point x="736" y="770" type="curve" smooth="yes"/>
      <point x="736" y="919" type="line" smooth="yes"/>
      <point x="736" y="928"/>
      <point x="744" y="936"/>
      <point x="752" y="936" type="curve" smooth="yes"/>
      <point x="1043" y="936" type="line" smooth="yes"/>
      <point x="1147" y="936"/>
      <point x="1208" y="932"/>
      <point x="1208" y="844" type="curve" smooth="yes"/>
      <point x="1208" y="792"/>
      <point x="1187" y="753"/>
      <point x="1120" y="753" type="curve" smooth="yes"/>
    </contour>
    <contour>
      <point x="952" y="80" type="curve" smooth="yes"/>
      <point x="470" y="80"/>
      <point x="290" y="419"/>
      <point x="290" y="713" type="curve" smooth="yes"/>
      <point x="290" y="1019"/>
      <point x="470" y="1350"/>
      <point x="952" y="1350" type="curve" smooth="yes"/>
      <point x="1433" y="1350"/>
      <point x="1613" y="1019"/>
      <point x="1613" y="713" type="curve" smooth="yes"/>
      <point x="1613" y="419"/>
      <point x="1433" y="80"/>
    </contour>
    <contour>
      <point x="949" y="-41" type="curve" smooth="yes"/>
      <point x="1493" y="-41"/>
      <point x="1765" y="318"/>
      <point x="1765" y="717" type="curve" smooth="yes"/>
      <point x="1765" y="1116"/>
      <point x="1493" y="1475"/>
      <point x="949" y="1475" type="curve" smooth="yes"/>
      <point x="405" y="1475"/>
      <point x="133" y="1116"/>
      <point x="133" y="717" type="curve" smooth="yes"/>
      <point x="133" y="318"/>
      <point x="405" y="-41"/>
    </contour>
  </outline>
</glyph>
<glyph name="macron" format="1">
  <advance width="1050"/>
  <unicode hex="00AF"/>
  <outline>
    <contour>
      <point x="527" y="1006" type="move" name="_top"/>
    </contour>
    <contour>
      <point x="183" y="694" type="curve" smooth="yes"/>
      <point x="870" y="694" type="line" smooth="yes"/>
      <point x="913" y="694"/>
      <point x="927" y="718"/>
      <point x="927" y="761" type="curve" smooth="yes"/>
      <point x="927" y="803" type="line" smooth="yes"/>
      <point x="927" y="846"/>
      <point x="913" y="870"/>
      <point x="870" y="870" type="curve" smooth="yes"/>
      <point x="183" y="870" type="line" smooth="yes"/>
      <point x="140" y="870"/>
      <point x="127" y="846"/>
      <point x="127" y="803" type="curve" smooth="yes"/>
      <point x="127" y="761" type="line" smooth="yes"/>
      <point x="127" y="718"/>
      <point x="140" y="694"/>
    </contour>
  </outline>
</glyph>
<glyph name="acute" format="1">
  <advance width="1745"/>
  <unicode hex="00B4"/>
  <outline>
    <contour>
      <point x="873" y="1006" type="move" name="_top"/>
    </contour>
    <contour>
      <point x="850" y="1166" type="curve" smooth="yes"/>
      <point x="876" y="1166" type="line" smooth="yes"/>
      <point x="888" y="1166"/>
      <point x="898" y="1166"/>
      <point x="924" y="1205" type="curve" smooth="yes"/>
      <point x="1148" y="1532" type="line" smooth="yes"/>
      <point x="1155" y="1544"/>
      <point x="1160" y="1558"/>
      <point x="1160" y="1569" type="curve" smooth="yes"/>
      <point x="1160" y="1585"/>
      <point x="1152" y="1597"/>
      <point x="1132" y="1597" type="curve" smooth="yes"/>
      <point x="969" y="1597" type="line" smooth="yes"/>
      <point x="925" y="1597"/>
      <point x="912" y="1585"/>
      <point x="904" y="1542" type="curve" smooth="yes"/>
      <point x="841" y="1233" type="line"/>
      <point x="838" y="1220"/>
      <point x="822" y="1166"/>
    </contour>
  </outline>
</glyph>
<glyph name="periodcentered" format="1">
  <advance width="543"/>
  <unicode hex="00B7"/>
  <outline>
    <contour>
      <point x="204" y="0" type="curve" smooth="yes"/>
      <point x="339" y="0" type="line" smooth="yes"/>
      <point x="382" y="0"/>
      <point x="416" y="34"/>
      <point x="416" y="77" type="curve" smooth="yes"/>
      <point x="416" y="220" type="line" smooth="yes"/>
      <point x="416" y="263"/>
      <point x="382" y="297"/>
      <point x="339" y="297" type="curve" smooth="yes"/>
      <point x="204" y="297" type="line" smooth="yes"/>
      <point x="161" y="297"/>
      <point x="127" y="263"/>
      <point x="127" y="220" type="curve" smooth="yes"/>
      <point x="127" y="77" type="line" smooth="yes"/>
      <point x="127" y="34"/>
      <point x="161" y="0"/>
    </contour>
  </outline>
</glyph>
<glyph name="ordmasculine" format="1">
  <advance width="1628"/>
  <unicode hex="00BA"/>
  <outline>
    <contour>
      <point x="597" y="672" type="curve" smooth="yes"/>
      <point x="376" y="672"/>
      <point x="194" y="788"/>
      <point x="194" y="1008" type="curve" smooth="yes"/>
      <point x="194" y="1251"/>
      <point x="390" y="1348"/>
      <point x="597" y="1348" type="curve" smooth="yes"/>
      <point x="800" y="1348"/>
      <point x="996" y="1253"/>
      <point x="996" y="1008" type="curve" smooth="yes"/>
      <point x="996" y="785"/>
      <point x="814" y="672"/>
    </contour>
    <contour>
      <point x="598" y="545" type="curve" smooth="yes"/>
      <point x="846" y="545"/>
      <point x="1183" y="673"/>
      <point x="1183" y="1008" type="curve" smooth="yes"/>
      <point x="1183" y="1353"/>
      <point x="872" y="1474"/>
      <point x="598" y="1474" type="curve" smooth="yes"/>
      <point x="318" y="1474"/>
      <point x="8" y="1353"/>
      <point x="8" y="1008" type="curve" smooth="yes"/>
      <point x="8" y="672"/>
      <point x="345" y="545"/>
    </contour>
  </outline>
</glyph>
<glyph name="onequarter" format="1">
  <advance width="3166"/>
  <unicode hex="00BC"/>
  <outline>
    <contour>
      <point x="2566" y="3" type="curve" smooth="yes"/>
      <point x="2646" y="3" type="line" smooth="yes"/>
      <point x="2676" y="3"/>
      <point x="2693" y="20"/>
      <point x="2693" y="50" type="curve" smooth="yes"/>
      <point x="2693" y="201" type="line"/>
      <point x="2872" y="201" type="line" smooth="yes"/>
      <point x="2902" y="201"/>
      <point x="2918" y="218"/>
      <point x="2918" y="248" type="curve" smooth="yes"/>
      <point x="2918" y="269" type="line" smooth="yes"/>
      <point x="2918" y="299"/>
      <point x="2902" y="315"/>
      <point x="2872" y="315" type="curve" smooth="yes"/>
      <point x="2693" y="315" type="line"/>
      <point x="2693" y="959" type="line" smooth="yes"/>
      <point x="2693" y="989"/>
      <point x="2676" y="1006"/>
      <point x="2646" y="1006" type="curve" smooth="yes"/>
      <point x="2567" y="1006" type="line" smooth="yes"/>
      <point x="2537" y="1006"/>
      <point x="2520" y="989"/>
      <point x="2520" y="959" type="curve" smooth="yes"/>
      <point x="2520" y="315" type="line"/>
      <point x="2112" y="316" type="line" smooth="yes"/>
      <point x="2101" y="315"/>
      <point x="2093" y="322"/>
      <point x="2093" y="332" type="curve" smooth="yes"/>
      <point x="2093" y="334"/>
      <point x="2093" y="336"/>
      <point x="2093" y="339" type="curve"/>
      <point x="2284" y="959" type="line"/>
      <point x="2285" y="963"/>
      <point x="2286" y="966"/>
      <point x="2286" y="970" type="curve" smooth="yes"/>
      <point x="2286" y="992"/>
      <point x="2263" y="1006"/>
      <point x="2237" y="1006" type="curve" smooth="yes"/>
      <point x="2161" y="1006" type="line" smooth="yes"/>
      <point x="2131" y="1006"/>
      <point x="2124" y="986"/>
      <point x="2115" y="958" type="curve" smooth="yes"/>
      <point x="1890" y="246" type="line" smooth="yes"/>
      <point x="1888" y="241"/>
      <point x="1888" y="238"/>
      <point x="1888" y="234" type="curve" smooth="yes"/>
      <point x="1888" y="212"/>
      <point x="1911" y="199"/>
      <point x="1937" y="199" type="curve" smooth="yes"/>
      <point x="2520" y="201" type="line"/>
      <point x="2520" y="50" type="line" smooth="yes"/>
      <point x="2520" y="20"/>
      <point x="2536" y="3"/>
    </contour>
    <contour>
      <point x="399" y="434" type="curve" smooth="yes"/>
      <point x="398" y="434"/>
      <point x="488" y="433"/>
      <point x="488" y="431" type="curve" smooth="yes"/>
      <point x="520" y="431"/>
      <point x="538" y="403"/>
      <point x="538" y="435" type="curve" smooth="yes"/>
      <point x="538" y="433"/>
      <point x="539" y="1391"/>
      <point x="540" y="1391" type="curve" smooth="yes"/>
      <point x="540" y="1422"/>
      <point x="547" y="1443"/>
      <point x="516" y="1443" type="curve"/>
      <point x="517" y="1443"/>
      <point x="149" y="1406"/>
      <point x="149" y="1408" type="curve"/>
      <point x="118" y="1408"/>
      <point x="100" y="1395"/>
      <point x="100" y="1363" type="curve" smooth="yes"/>
      <point x="100" y="1365"/>
      <point x="99" y="1340"/>
      <point x="98" y="1340" type="curve" smooth="yes"/>
      <point x="98" y="1309"/>
      <point x="107" y="1290"/>
      <point x="139" y="1290" type="curve"/>
      <point x="138" y="1290"/>
      <point x="338" y="1313"/>
      <point x="338" y="1313" type="curve"/>
      <point x="353" y="1313"/>
      <point x="365" y="1337"/>
      <point x="365" y="1322" type="curve" smooth="yes"/>
      <point x="365" y="1323"/>
      <point x="364" y="483"/>
      <point x="363" y="483" type="curve" smooth="yes"/>
      <point x="363" y="451"/>
      <point x="368" y="434"/>
    </contour>
    <contour>
      <point x="819" y="-205" type="curve"/>
      <point x="818" y="-205"/>
      <point x="951" y="-205"/>
      <point x="951" y="-206" type="curve" smooth="yes"/>
      <point x="973" y="-206"/>
      <point x="951" y="-283"/>
      <point x="961" y="-262" type="curve" smooth="yes"/>
      <point x="961" y="-262"/>
      <point x="1889" y="1613"/>
      <point x="1892" y="1613" type="curve" smooth="yes"/>
      <point x="1901" y="1628"/>
      <point x="1891" y="1647"/>
      <point x="1873" y="1647" type="curve" smooth="yes"/>
      <point x="1874" y="1647"/>
      <point x="1741" y="1647"/>
      <point x="1741" y="1648" type="curve" smooth="yes"/>
      <point x="1719" y="1648"/>
      <point x="1741" y="1725"/>
      <point x="1731" y="1704" type="curve" smooth="yes"/>
      <point x="1731" y="1704"/>
      <point x="803" y="-171"/>
      <point x="801" y="-170" type="curve" smooth="yes"/>
      <point x="792" y="-186"/>
      <point x="801" y="-205"/>
    </contour>
  </outline>
</glyph>
<glyph name="threequarters" format="1">
  <advance width="4865"/>
  <unicode hex="00BE"/>
  <outline>
    <contour>
      <point x="1494" y="-205"/>
      <point x="1516" y="-193"/>
      <point x="1525" y="-172" type="curve"/>
      <point x="2429" y="1617" type="line" smooth="yes"/>
      <point x="2437" y="1633"/>
      <point x="2422" y="1647"/>
      <point x="2409" y="1647" type="curve"/>
      <point x="2310" y="1647" type="line"/>
      <point x="2290" y="1647"/>
      <point x="2268" y="1633"/>
      <point x="2260" y="1615" type="curve" smooth="yes"/>
      <point x="1358" y="-172" type="line" smooth="yes"/>
      <point x="1350" y="-188"/>
      <point x="1362" y="-205"/>
      <point x="1378" y="-205" type="curve"/>
      <point x="1473" y="-205" type="line"/>
    </contour>
    <contour>
      <point x="2994" y="20"/>
      <point x="3011" y="3"/>
      <point x="3041" y="3" type="curve" smooth="yes"/>
      <point x="3099" y="3" type="line" smooth="yes"/>
      <point x="3129" y="3"/>
      <point x="3146" y="20"/>
      <point x="3146" y="50" type="curve" smooth="yes"/>
      <point x="3146" y="201" type="line"/>
      <point x="3325" y="201" type="line" smooth="yes"/>
      <point x="3355" y="201"/>
      <point x="3371" y="218"/>
      <point x="3371" y="248" type="curve" smooth="yes"/>
      <point x="3371" y="269" type="line" smooth="yes"/>
      <point x="3371" y="299"/>
      <point x="3355" y="316"/>
      <point x="3325" y="316" type="curve" smooth="yes"/>
      <point x="3146" y="316" type="line"/>
      <point x="3146" y="960" type="line" smooth="yes"/>
      <point x="3146" y="990"/>
      <point x="3129" y="1007"/>
      <point x="3099" y="1007" type="curve" smooth="yes"/>
      <point x="3041" y="1007" type="line" smooth="yes"/>
      <point x="3011" y="1007"/>
      <point x="2994" y="990"/>
      <point x="2994" y="960" type="curve" smooth="yes"/>
      <point x="2994" y="316" type="line"/>
      <point x="2587" y="316" type="line" smooth="yes"/>
      <point x="2575" y="316"/>
      <point x="2567" y="323"/>
      <point x="2567" y="332" type="curve" smooth="yes"/>
      <point x="2567" y="335"/>
      <point x="2567" y="337"/>
      <point x="2568" y="339" type="curve" smooth="yes"/>
      <point x="2758" y="960" type="line" smooth="yes"/>
      <point x="2760" y="964"/>
      <point x="2760" y="967"/>
      <point x="2760" y="971" type="curve" smooth="yes"/>
      <point x="2760" y="993"/>
      <point x="2737" y="1007"/>
      <point x="2711" y="1007" type="curve" smooth="yes"/>
      <point x="2653" y="1007" type="line" smooth="yes"/>
      <point x="2623" y="1007"/>
      <point x="2615" y="988"/>
      <point x="2606" y="960" type="curve" smooth="yes"/>
      <point x="2381" y="248" type="line" smooth="yes"/>
      <point x="2379" y="244"/>
      <point x="2379" y="240"/>
      <point x="2379" y="237" type="curve" smooth="yes"/>
      <point x="2379" y="214"/>
      <point x="2402" y="201"/>
      <point x="2428" y="201" type="curve" smooth="yes"/>
      <point x="2994" y="201" type="line"/>
      <point x="2994" y="50" type="line" smooth="yes"/>
    </contour>
    <contour>
      <point x="258" y="452"/>
      <point x="616" y="403"/>
      <point x="755" y="403" type="curve" smooth="yes"/>
      <point x="1185" y="403"/>
      <point x="1327" y="528"/>
      <point x="1327" y="705" type="curve" smooth="yes"/>
      <point x="1327" y="831"/>
      <point x="1238" y="926"/>
      <point x="1090" y="944" type="curve"/>
      <point x="1232" y="959"/>
      <point x="1310" y="1049"/>
      <point x="1310" y="1175" type="curve" smooth="yes"/>
      <point x="1310" y="1345"/>
      <point x="1208" y="1478"/>
      <point x="779" y="1478" type="curve" smooth="yes"/>
      <point x="607" y="1478"/>
      <point x="258" y="1426"/>
      <point x="179" y="1402" type="curve" smooth="yes"/>
      <point x="152" y="1395"/>
      <point x="141" y="1383"/>
      <point x="141" y="1362" type="curve" smooth="yes"/>
      <point x="141" y="1359"/>
      <point x="141" y="1356"/>
      <point x="142" y="1353" type="curve" smooth="yes"/>
      <point x="149" y="1315" type="line"/>
      <point x="152" y="1293"/>
      <point x="167" y="1284"/>
      <point x="185" y="1284" type="curve" smooth="yes"/>
      <point x="190" y="1284"/>
      <point x="196" y="1284"/>
      <point x="202" y="1286" type="curve" smooth="yes"/>
      <point x="230" y="1291"/>
      <point x="519" y="1356"/>
      <point x="783" y="1356" type="curve" smooth="yes"/>
      <point x="1028" y="1356"/>
      <point x="1145" y="1310"/>
      <point x="1158" y="1211" type="curve" smooth="yes"/>
      <point x="1170" y="1115"/>
      <point x="1132" y="1007"/>
      <point x="835" y="1007" type="curve" smooth="yes"/>
      <point x="667" y="1007" type="line" smooth="yes"/>
      <point x="644" y="1007"/>
      <point x="644" y="986"/>
      <point x="644" y="976" type="curve" smooth="yes"/>
      <point x="644" y="918" type="line" smooth="yes"/>
      <point x="644" y="908"/>
      <point x="644" y="888"/>
      <point x="667" y="888" type="curve" smooth="yes"/>
      <point x="835" y="888" type="line" smooth="yes"/>
      <point x="1121" y="888"/>
      <point x="1186" y="788"/>
      <point x="1174" y="691" type="curve" smooth="yes"/>
      <point x="1165" y="625"/>
      <point x="1109" y="524"/>
      <point x="762" y="524" type="curve" smooth="yes"/>
      <point x="525" y="524"/>
      <point x="220" y="588"/>
      <point x="192" y="593" type="curve" smooth="yes"/>
      <point x="186" y="594"/>
      <point x="181" y="595"/>
      <point x="176" y="595" type="curve" smooth="yes"/>
      <point x="157" y="595"/>
      <point x="147" y="586"/>
      <point x="145" y="564" type="curve"/>
      <point x="142" y="525" type="line"/>
      <point x="141" y="521"/>
      <point x="141" y="518"/>
      <point x="141" y="515" type="curve" smooth="yes"/>
      <point x="141" y="494"/>
      <point x="152" y="482"/>
      <point x="179" y="475" type="curve" smooth="yes"/>
    </contour>
  </outline>
</glyph>
<glyph name="multiply" format="1">
  <advance width="1116"/>
  <unicode hex="00D7"/>
  <outline>
    <contour>
      <point x="263" y="259" type="curve" smooth="yes"/>
      <point x="283" y="259"/>
      <point x="300" y="264"/>
      <point x="318" y="282" type="curve" smooth="yes"/>
      <point x="336" y="300"/>
      <point x="438" y="406"/>
      <point x="560" y="532" type="curve"/>
      <point x="694" y="402"/>
      <point x="805" y="295"/>
      <point x="811" y="290" type="curve" smooth="yes"/>
      <point x="827" y="274"/>
      <point x="845" y="267"/>
      <point x="864" y="267" type="curve" smooth="yes"/>
      <point x="885" y="267"/>
      <point x="904" y="275"/>
      <point x="919" y="290" type="curve" smooth="yes"/>
      <point x="957" y="326" type="line" smooth="yes"/>
      <point x="972" y="341"/>
      <point x="979" y="360"/>
      <point x="979" y="380" type="curve" smooth="yes"/>
      <point x="979" y="400"/>
      <point x="976" y="416"/>
      <point x="956" y="435" type="curve" smooth="yes"/>
      <point x="948" y="443"/>
      <point x="841" y="549"/>
      <point x="706" y="682" type="curve"/>
      <point x="835" y="816"/>
      <point x="943" y="928"/>
      <point x="948" y="933" type="curve" smooth="yes"/>
      <point x="964" y="950"/>
      <point x="971" y="968"/>
      <point x="971" y="987" type="curve" smooth="yes"/>
      <point x="971" y="1007"/>
      <point x="963" y="1027"/>
      <point x="948" y="1042" type="curve" smooth="yes"/>
      <point x="912" y="1079" type="line" smooth="yes"/>
      <point x="897" y="1095"/>
      <point x="878" y="1102"/>
      <point x="858" y="1102" type="curve" smooth="yes"/>
      <point x="838" y="1102"/>
      <point x="822" y="1098"/>
      <point x="803" y="1079" type="curve" smooth="yes"/>
      <point x="795" y="1071"/>
      <point x="687" y="961"/>
      <point x="557" y="829" type="curve"/>
      <point x="426" y="959"/>
      <point x="317" y="1066"/>
      <point x="312" y="1071" type="curve" smooth="yes"/>
      <point x="296" y="1088"/>
      <point x="279" y="1093"/>
      <point x="258" y="1093" type="curve" smooth="yes"/>
      <point x="239" y="1093"/>
      <point x="219" y="1086"/>
      <point x="203" y="1071" type="curve" smooth="yes"/>
      <point x="159" y="1029" type="line" smooth="yes"/>
      <point x="144" y="1014"/>
      <point x="136" y="994"/>
      <point x="136" y="975" type="curve" smooth="yes"/>
      <point x="136" y="955"/>
      <point x="141" y="938"/>
      <point x="159" y="920" type="curve" smooth="yes"/>
      <point x="177" y="902"/>
      <point x="283" y="801"/>
      <point x="408" y="679" type="curve"/>
      <point x="279" y="549"/>
      <point x="172" y="440"/>
      <point x="167" y="435" type="curve" smooth="yes"/>
      <point x="150" y="418"/>
      <point x="145" y="401"/>
      <point x="145" y="381" type="curve" smooth="yes"/>
      <point x="145" y="361"/>
      <point x="152" y="342"/>
      <point x="167" y="326" type="curve" smooth="yes"/>
      <point x="209" y="282" type="line" smooth="yes"/>
      <point x="224" y="267"/>
      <point x="244" y="259"/>
    </contour>
  </outline>
</glyph>
<glyph name="germandbls" format="1">
  <advance width="1706"/>
  <unicode hex="00DF"/>
  <outline>
    <contour>
      <point x="213" y="0" type="curve" smooth="yes"/>
      <point x="302" y="0" type="line" smooth="yes"/>
      <point x="353" y="0"/>
      <point x="370" y="31"/>
      <point x="370" y="76" type="curve" smooth="yes"/>
      <point x="370" y="976" type="line" smooth="yes"/>
      <point x="370" y="1198"/>
      <point x="473" y="1282"/>
      <point x="708" y="1282" type="curve" smooth="yes"/>
      <point x="1165" y="1282"/>
      <point x="1256" y="1206"/>
      <point x="1256" y="1042" type="curve" smooth="yes"/>
      <point x="1256" y="942"/>
      <point x="1177" y="833"/>
      <point x="823" y="833" type="curve"/>
      <point x="594" y="833" type="line" smooth="yes"/>
      <point x="572" y="833"/>
      <point x="563" y="826"/>
      <point x="563" y="803" type="curve" smooth="yes"/>
      <point x="563" y="693" type="line" smooth="yes"/>
      <point x="563" y="674"/>
      <point x="571" y="665"/>
      <point x="594" y="665" type="curve" smooth="yes"/>
      <point x="813" y="665" type="line" smooth="yes"/>
      <point x="1243" y="665"/>
      <point x="1363" y="578"/>
      <point x="1363" y="420" type="curve" smooth="yes"/>
      <point x="1363" y="243"/>
      <point x="1269" y="155"/>
      <point x="761" y="155" type="curve" smooth="yes"/>
      <point x="561" y="155" type="line"/>
      <point x="543" y="156"/>
      <point x="530" y="149"/>
      <point x="530" y="134" type="curve" smooth="yes"/>
      <point x="530" y="24" type="line" smooth="yes"/>
      <point x="530" y="8"/>
      <point x="537" y="0"/>
      <point x="561" y="0" type="curve" smooth="yes"/>
      <point x="744" y="0" type="line" smooth="yes"/>
      <point x="1243" y="0"/>
      <point x="1575" y="96"/>
      <point x="1575" y="424" type="curve" smooth="yes"/>
      <point x="1575" y="590"/>
      <point x="1446" y="712"/>
      <point x="1260" y="762" type="curve" smooth="yes"/>
      <point x="1245" y="766"/>
      <point x="1244" y="775"/>
      <point x="1257" y="781" type="curve" smooth="yes"/>
      <point x="1387" y="841"/>
      <point x="1448" y="929"/>
      <point x="1448" y="1040" type="curve" smooth="yes"/>
      <point x="1448" y="1339"/>
      <point x="1208" y="1438"/>
      <point x="780" y="1438" type="curve" smooth="yes"/>
      <point x="726" y="1438" type="line" smooth="yes"/>
      <point x="237" y="1438"/>
      <point x="156" y="1232"/>
      <point x="156" y="969" type="curve" smooth="yes"/>
      <point x="156" y="77" type="line" smooth="yes"/>
      <point x="156" y="34"/>
      <point x="170" y="0"/>
    </contour>
  </outline>
</glyph>
<glyph name="dotlessi" format="1">
  <advance width="538"/>
  <unicode hex="0131"/>
  <outline>
    <contour>
      <point x="270" y="1006" type="move" name="top"/>
    </contour>
    <contour>
      <point x="484" y="10" type="move" name="ogonek"/>
    </contour>
    <contour>
      <point x="227" y="0" type="curve" smooth="yes"/>
      <point x="312" y="0" type="line" smooth="yes"/>
      <point x="355" y="0"/>
      <point x="379" y="24"/>
      <point x="379" y="67" type="curve" smooth="yes"/>
      <point x="379" y="939" type="line" smooth="yes"/>
      <point x="379" y="982"/>
      <point x="355" y="1006"/>
      <point x="312" y="1006" type="curve" smooth="yes"/>
      <point x="227" y="1006" type="line" smooth="yes"/>
      <point x="184" y="1006"/>
      <point x="160" y="982"/>
      <point x="160" y="939" type="curve" smooth="yes"/>
      <point x="160" y="67" type="line" smooth="yes"/>
      <point x="160" y="24"/>
      <point x="184" y="0"/>
    </contour>
  </outline>
</glyph>
<glyph name="kgreenlandic" format="1">
  <advance width="1698"/>
  <unicode hex="0138"/>
  <outline>
    <contour>
      <point x="227" y="0" type="curve" smooth="yes"/>
      <point x="312" y="0" type="line" smooth="yes"/>
      <point x="355" y="0"/>
      <point x="379" y="24"/>
      <point x="379" y="67" type="curve" smooth="yes"/>
      <point x="379" y="290" type="line" smooth="yes"/>
      <point x="379" y="301"/>
      <point x="383" y="306"/>
      <point x="391" y="311" type="curve" smooth="yes"/>
      <point x="394" y="313"/>
      <point x="601" y="431"/>
      <point x="671" y="471" type="curve" smooth="yes"/>
      <point x="677" y="475"/>
      <point x="682" y="476"/>
      <point x="685" y="476" type="curve" smooth="yes"/>
      <point x="693" y="476"/>
      <point x="697" y="471"/>
      <point x="701" y="468" type="curve" smooth="yes"/>
      <point x="1250" y="67" type="line" smooth="yes"/>
      <point x="1298" y="31"/>
      <point x="1339" y="0"/>
      <point x="1382" y="0" type="curve" smooth="yes"/>
      <point x="1536" y="0" type="line" smooth="yes"/>
      <point x="1559" y="0"/>
      <point x="1572" y="9"/>
      <point x="1572" y="22" type="curve" smooth="yes"/>
      <point x="1572" y="34"/>
      <point x="1561" y="50"/>
      <point x="1538" y="67" type="curve" smooth="yes"/>
      <point x="866" y="547" type="line" smooth="yes"/>
      <point x="864" y="548"/>
      <point x="859" y="551"/>
      <point x="859" y="555" type="curve" smooth="yes"/>
      <point x="859" y="558"/>
      <point x="860" y="560"/>
      <point x="865" y="563" type="curve" smooth="yes"/>
      <point x="1473" y="938" type="line" smooth="yes"/>
      <point x="1506" y="958"/>
      <point x="1520" y="976"/>
      <point x="1520" y="989" type="curve" smooth="yes"/>
      <point x="1520" y="999"/>
      <point x="1510" y="1006"/>
      <point x="1490" y="1006" type="curve" smooth="yes"/>
      <point x="1307" y="1006" type="line" smooth="yes"/>
      <point x="1264" y="1006"/>
      <point x="1215" y="975"/>
      <point x="1157" y="938" type="curve" smooth="yes"/>
      <point x="391" y="467" type="line"/>
      <point x="389" y="465"/>
      <point x="386" y="465"/>
      <point x="385" y="465" type="curve" smooth="yes"/>
      <point x="380" y="465"/>
      <point x="379" y="468"/>
      <point x="379" y="474" type="curve" smooth="yes"/>
      <point x="379" y="939" type="line" smooth="yes"/>
      <point x="379" y="982"/>
      <point x="355" y="1006"/>
      <point x="312" y="1006" type="curve" smooth="yes"/>
      <point x="227" y="1006" type="line" smooth="yes"/>
      <point x="184" y="1006"/>
      <point x="160" y="982"/>
      <point x="160" y="939" type="curve" smooth="yes"/>
      <point x="160" y="67" type="line" smooth="yes"/>
      <point x="160" y="24"/>
      <point x="184" y="0"/>
    </contour>
  </outline>
</glyph>
<glyph name="lslash" format="1">
  <advance width="681"/>
  <unicode hex="0142"/>
  <outline>
    <contour>
      <point x="282" y="0" type="curve" smooth="yes"/>
      <point x="367" y="0" type="line" smooth="yes"/>
      <point x="410" y="0"/>
      <point x="434" y="24"/>
      <point x="434" y="67" type="curve" smooth="yes"/>
      <point x="434" y="735" type="line"/>
      <point x="587" y="785" type="line" smooth="yes"/>
      <point x="629" y="797"/>
      <point x="645" y="809"/>
      <point x="645" y="852" type="curve"/>
      <point x="645" y="868" type="line"/>
      <point x="645" y="912"/>
      <point x="631" y="950"/>
      <point x="587" y="936" type="curve" smooth="yes"/>
      <point x="434" y="887" type="line"/>
      <point x="434" y="1370" type="line" smooth="yes"/>
      <point x="434" y="1413"/>
      <point x="410" y="1437"/>
      <point x="367" y="1437" type="curve" smooth="yes"/>
      <point x="282" y="1437" type="line" smooth="yes"/>
      <point x="239" y="1437"/>
      <point x="215" y="1413"/>
      <point x="215" y="1370" type="curve" smooth="yes"/>
      <point x="215" y="815" type="line"/>
      <point x="91" y="775" type="line" smooth="yes"/>
      <point x="50" y="762"/>
      <point x="34" y="751"/>
      <point x="34" y="708" type="curve"/>
      <point x="34" y="691" type="line"/>
      <point x="34" y="647"/>
      <point x="50" y="610"/>
      <point x="91" y="623" type="curve" smooth="yes"/>
      <point x="215" y="664" type="line"/>
      <point x="215" y="67" type="line" smooth="yes"/>
      <point x="215" y="24"/>
      <point x="239" y="0"/>
    </contour>
  </outline>
</glyph>
<glyph name="eng" format="1">
  <advance width="1529"/>
  <unicode hex="014B"/>
  <outline>
    <contour>
      <point x="880" y="-380" type="curve" smooth="yes"/>
      <point x="877" y="-379"/>
      <point x="967" y="-379"/>
      <point x="964" y="-379" type="curve"/>
      <point x="1270" y="-380"/>
      <point x="1384" y="-258"/>
      <point x="1386" y="6" type="curve" smooth="yes"/>
      <point x="1386" y="553" type="line" smooth="yes"/>
      <point x="1386" y="888"/>
      <point x="1177" y="1052"/>
      <point x="869" y="1052" type="curve" smooth="yes"/>
      <point x="680" y="1052"/>
      <point x="496" y="987"/>
      <point x="366" y="826" type="curve" smooth="yes"/>
      <point x="360" y="819"/>
      <point x="354" y="811"/>
      <point x="346" y="811" type="curve" smooth="yes"/>
      <point x="338" y="811"/>
      <point x="336" y="816"/>
      <point x="331" y="824" type="curve" smooth="yes"/>
      <point x="305" y="942" type="line" smooth="yes"/>
      <point x="295" y="992"/>
      <point x="273" y="1006"/>
      <point x="226" y="1006" type="curve" smooth="yes"/>
      <point x="208" y="1006" type="line" smooth="yes"/>
      <point x="165" y="1006"/>
      <point x="152" y="972"/>
      <point x="152" y="929" type="curve" smooth="yes"/>
      <point x="152" y="67" type="line" smooth="yes"/>
      <point x="152" y="24"/>
      <point x="176" y="0"/>
      <point x="219" y="0" type="curve" smooth="yes"/>
      <point x="305" y="0" type="line" smooth="yes"/>
      <point x="348" y="0"/>
      <point x="371" y="24"/>
      <point x="371" y="67" type="curve" smooth="yes"/>
      <point x="371" y="609" type="line" smooth="yes"/>
      <point x="371" y="742"/>
      <point x="632" y="905"/>
      <point x="829" y="905" type="curve" smooth="yes"/>
      <point x="1015" y="905"/>
      <point x="1168" y="836"/>
      <point x="1168" y="609" type="curve" smooth="yes"/>
      <point x="1168" y="68" type="line" smooth="yes"/>
      <point x="1168" y="-103"/>
      <point x="1167" y="-207"/>
      <point x="1004" y="-207" type="curve" smooth="yes"/>
      <point x="1005" y="-207"/>
      <point x="879" y="-207"/>
      <point x="880" y="-207" type="curve" smooth="yes"/>
      <point x="837" y="-207"/>
      <point x="821" y="-225"/>
      <point x="821" y="-268" type="curve" smooth="yes"/>
      <point x="821" y="-313" type="line" smooth="yes"/>
      <point x="821" y="-356"/>
      <point x="837" y="-380"/>
    </contour>
  </outline>
</glyph>
<glyph name="OE" format="1">
  <advance width="2614"/>
  <unicode hex="0152"/>
  <outline>
    <contour>
      <point x="1307" y="1438" type="move" name="top"/>
    </contour>
    <contour>
      <point x="1213" y="0" type="curve" smooth="yes"/>
      <point x="1179" y="0"/>
      <point x="2493" y="0"/>
      <point x="2410" y="0" type="curve" smooth="yes"/>
      <point x="2453" y="0"/>
      <point x="2477" y="34"/>
      <point x="2477" y="77" type="curve" smooth="yes"/>
      <point x="2477" y="79" type="line" smooth="yes"/>
      <point x="2477" y="122"/>
      <point x="2453" y="155"/>
      <point x="2410" y="155" type="curve" smooth="yes"/>
      <point x="1435" y="155" type="line" smooth="yes"/>
      <point x="1436" y="155"/>
      <point x="1422" y="172"/>
      <point x="1422" y="171" type="curve" smooth="yes"/>
      <point x="1422" y="649" type="line" smooth="yes"/>
      <point x="1422" y="648"/>
      <point x="1442" y="665"/>
      <point x="1441" y="665" type="curve" smooth="yes"/>
      <point x="2302" y="665" type="line" smooth="yes"/>
      <point x="2345" y="665"/>
      <point x="2369" y="699"/>
      <point x="2369" y="742" type="curve" smooth="yes"/>
      <point x="2369" y="745" type="line" smooth="yes"/>
      <point x="2369" y="788"/>
      <point x="2345" y="822"/>
      <point x="2302" y="822" type="curve" smooth="yes"/>
      <point x="1435" y="822" type="line" smooth="yes"/>
      <point x="1436" y="822"/>
      <point x="1422" y="848"/>
      <point x="1422" y="847" type="curve" smooth="yes"/>
      <point x="1422" y="1259" type="line" smooth="yes"/>
      <point x="1422" y="1279"/>
      <point x="1429" y="1284"/>
      <point x="1449" y="1284" type="curve" smooth="yes"/>
      <point x="2412" y="1284" type="line" smooth="yes"/>
      <point x="2455" y="1284"/>
      <point x="2479" y="1318"/>
      <point x="2479" y="1361" type="curve" smooth="yes"/>
      <point x="2479" y="1361" type="line" smooth="yes"/>
      <point x="2479" y="1404"/>
      <point x="2454" y="1438"/>
      <point x="2412" y="1438" type="curve" smooth="yes"/>
      <point x="1215" y="1438" type="line" smooth="yes"/>
      <point x="697" y="1438"/>
      <point x="131" y="1296"/>
      <point x="131" y="724" type="curve" smooth="yes"/>
      <point x="131" y="106"/>
      <point x="723" y="0"/>
    </contour>
    <contour>
      <point x="1149" y="163" type="line"/>
      <point x="761" y="163"/>
      <point x="344" y="255"/>
      <point x="344" y="724" type="curve" smooth="yes"/>
      <point x="344" y="1128"/>
      <point x="683" y="1275"/>
      <point x="1151" y="1275" type="curve" smooth="yes"/>
      <point x="1187" y="1275" type="line" smooth="yes"/>
      <point x="1187" y="1275"/>
      <point x="1208" y="1259"/>
      <point x="1208" y="1260" type="curve" smooth="yes"/>
      <point x="1208" y="180" type="line" smooth="yes"/>
      <point x="1208" y="181"/>
      <point x="1196" y="163"/>
      <point x="1197" y="163" type="curve" smooth="yes"/>
    </contour>
  </outline>
</glyph>
<glyph name="tbar" format="1">
  <advance width="1216"/>
  <unicode hex="0167"/>
  <outline>
    <contour>
      <point x="707" y="-41" type="curve" smooth="yes"/>
      <point x="816" y="-41"/>
      <point x="905" y="-26"/>
      <point x="984" y="5" type="curve" smooth="yes"/>
      <point x="1025" y="21"/>
      <point x="1046" y="36"/>
      <point x="1034" y="78" type="curve" smooth="yes"/>
      <point x="1025" y="106" type="line" smooth="yes"/>
      <point x="1015" y="141"/>
      <point x="1008" y="163"/>
      <point x="951" y="144" type="curve" smooth="yes"/>
      <point x="890" y="124"/>
      <point x="816" y="107"/>
      <point x="748" y="107" type="curve" smooth="yes"/>
      <point x="596" y="107"/>
      <point x="522" y="163"/>
      <point x="522" y="301" type="curve" smooth="yes"/>
      <point x="522" y="525" type="line"/>
      <point x="750" y="525" type="line" smooth="yes"/>
      <point x="793" y="525"/>
      <point x="817" y="538"/>
      <point x="817" y="581" type="curve" smooth="yes"/>
      <point x="817" y="607" type="line" smooth="yes"/>
      <point x="817" y="650"/>
      <point x="793" y="663"/>
      <point x="750" y="663" type="curve" smooth="yes"/>
      <point x="522" y="663" type="line"/>
      <point x="522" y="823" type="line" smooth="yes"/>
      <point x="522" y="843"/>
      <point x="529" y="850"/>
      <point x="549" y="850" type="curve" smooth="yes"/>
      <point x="932" y="850" type="line" smooth="yes"/>
      <point x="975" y="850"/>
      <point x="998" y="873"/>
      <point x="998" y="916" type="curve" smooth="yes"/>
      <point x="998" y="939" type="line" smooth="yes"/>
      <point x="998" y="982"/>
      <point x="975" y="1006"/>
      <point x="932" y="1006" type="curve" smooth="yes"/>
      <point x="549" y="1006" type="line" smooth="yes"/>
      <point x="529" y="1006"/>
      <point x="522" y="1013"/>
      <point x="522" y="1033" type="curve" smooth="yes"/>
      <point x="522" y="1408" type="line" smooth="yes"/>
      <point x="522" y="1451"/>
      <point x="499" y="1475"/>
      <point x="456" y="1475" type="curve" smooth="yes"/>
      <point x="391" y="1475" type="line" smooth="yes"/>
      <point x="348" y="1475"/>
      <point x="333" y="1450"/>
      <point x="324" y="1408" type="curve"/>
      <point x="305" y="1033" type="line"/>
      <point x="305" y="1013"/>
      <point x="298" y="1006"/>
      <point x="278" y="1006" type="curve" smooth="yes"/>
      <point x="148" y="1006" type="line" smooth="yes"/>
      <point x="105" y="1006"/>
      <point x="81" y="982"/>
      <point x="81" y="939" type="curve" smooth="yes"/>
      <point x="81" y="916" type="line" smooth="yes"/>
      <point x="81" y="873"/>
      <point x="105" y="850"/>
      <point x="148" y="850" type="curve" smooth="yes"/>
      <point x="278" y="850" type="line" smooth="yes"/>
      <point x="298" y="850"/>
      <point x="305" y="843"/>
      <point x="305" y="823" type="curve" smooth="yes"/>
      <point x="305" y="663" type="line"/>
      <point x="193" y="663" type="line" smooth="yes"/>
      <point x="150" y="663"/>
      <point x="126" y="650"/>
      <point x="126" y="607" type="curve" smooth="yes"/>
      <point x="126" y="581" type="line" smooth="yes"/>
      <point x="126" y="538"/>
      <point x="150" y="525"/>
      <point x="193" y="525" type="curve" smooth="yes"/>
      <point x="305" y="525" type="line"/>
      <point x="305" y="331" type="line" smooth="yes"/>
      <point x="305" y="109"/>
      <point x="425" y="-41"/>
    </contour>
  </outline>
</glyph>
<glyph name="dotlessj" format="1">
  <advance width="774"/>
  <unicode hex="0237"/>
  <outline>
    <contour>
      <point x="387" y="1006" type="move" name="top"/>
    </contour>
    <contour>
      <point x="97" y="-379" type="curve"/>
      <point x="82" y="-380"/>
      <point x="167" y="-386"/>
      <point x="167" y="-401" type="curve" smooth="yes"/>
      <point x="488" y="-401"/>
      <point x="612" y="-319"/>
      <point x="614" y="-40" type="curve" smooth="yes"/>
      <point x="614" y="-43"/>
      <point x="616" y="936"/>
      <point x="618" y="936" type="curve" smooth="yes"/>
      <point x="618" y="981"/>
      <point x="607" y="1006"/>
      <point x="561" y="1006" type="curve" smooth="yes"/>
      <point x="564" y="1006"/>
      <point x="466" y="1007"/>
      <point x="466" y="1010" type="curve" smooth="yes"/>
      <point x="421" y="1010"/>
      <point x="396" y="1029"/>
      <point x="396" y="984" type="curve" smooth="yes"/>
      <point x="396" y="991"/>
      <point x="399" y="104"/>
      <point x="406" y="104" type="curve" smooth="yes"/>
      <point x="407" y="-91"/>
      <point x="415" y="-207"/>
      <point x="239" y="-207" type="curve" smooth="yes"/>
      <point x="241" y="-207"/>
      <point x="112" y="-206"/>
      <point x="112" y="-204" type="curve" smooth="yes"/>
      <point x="67" y="-204"/>
      <point x="50" y="-218"/>
      <point x="50" y="-263" type="curve" smooth="yes"/>
      <point x="50" y="-261"/>
      <point x="48" y="-309"/>
      <point x="46" y="-309" type="curve" smooth="yes"/>
      <point x="44" y="-354"/>
      <point x="55" y="-379"/>
    </contour>
  </outline>
</glyph>
<glyph name="circumflex" format="1">
  <advance width="846"/>
  <unicode hex="02C6"/>
  <outline>
    <contour>
      <point x="418" y="1006" type="move" name="_top"/>
    </contour>
    <contour>
      <point x="100" y="1217" type="curve" smooth="yes"/>
      <point x="133" y="1217" type="line" smooth="yes"/>
      <point x="179" y="1217"/>
      <point x="237" y="1232"/>
      <point x="277" y="1255" type="curve" smooth="yes"/>
      <point x="387" y="1322" type="line" smooth="yes"/>
      <point x="397" y="1328"/>
      <point x="408" y="1330"/>
      <point x="419" y="1330" type="curve" smooth="yes"/>
      <point x="430" y="1330"/>
      <point x="442" y="1328"/>
      <point x="451" y="1322" type="curve"/>
      <point x="559" y="1255" type="line" smooth="yes"/>
      <point x="599" y="1232"/>
      <point x="658" y="1217"/>
      <point x="704" y="1217" type="curve" smooth="yes"/>
      <point x="736" y="1217" type="line" smooth="yes"/>
      <point x="754" y="1217"/>
      <point x="766" y="1231"/>
      <point x="766" y="1247" type="curve" smooth="yes"/>
      <point x="766" y="1253"/>
      <point x="763" y="1262"/>
      <point x="756" y="1268" type="curve" smooth="yes"/>
      <point x="593" y="1421" type="line" smooth="yes"/>
      <point x="558" y="1453"/>
      <point x="507" y="1473"/>
      <point x="460" y="1473" type="curve" smooth="yes"/>
      <point x="377" y="1473" type="line" smooth="yes"/>
      <point x="330" y="1473"/>
      <point x="278" y="1453"/>
      <point x="243" y="1421" type="curve" smooth="yes"/>
      <point x="81" y="1268" type="line" smooth="yes"/>
      <point x="74" y="1262"/>
      <point x="71" y="1253"/>
      <point x="71" y="1247" type="curve" smooth="yes"/>
      <point x="71" y="1231"/>
      <point x="83" y="1217"/>
    </contour>
  </outline>
</glyph>
<glyph name="breve" format="1">
  <advance width="1176"/>
  <unicode hex="02D8"/>
  <outline>
    <contour>
      <point x="641" y="1006" type="move" name="_top"/>
    </contour>
    <contour>
      <point x="641" y="1185" type="curve" smooth="yes"/>
      <point x="806" y="1185"/>
      <point x="959" y="1259"/>
      <point x="959" y="1498" type="curve"/>
      <point x="769" y="1498" type="line"/>
      <point x="769" y="1380"/>
      <point x="721" y="1330"/>
      <point x="641" y="1330" type="curve" smooth="yes"/>
      <point x="560" y="1330"/>
      <point x="513" y="1387"/>
      <point x="513" y="1498" type="curve"/>
      <point x="323" y="1498" type="line"/>
      <point x="323" y="1259"/>
      <point x="475" y="1185"/>
    </contour>
  </outline>
</glyph>
<glyph name="uni0311" format="1">
  <advance width="1176"/>
  <unicode hex="0311"/>
  <outline>
    <contour>
      <point x="323" y="1184" type="curve"/>
      <point x="513" y="1184" type="line"/>
      <point x="513" y="1301"/>
      <point x="561" y="1352"/>
      <point x="641" y="1352" type="curve" smooth="yes"/>
      <point x="722" y="1352"/>
      <point x="769" y="1294"/>
      <point x="769" y="1184" type="curve"/>
      <point x="959" y="1184" type="line"/>
      <point x="959" y="1423"/>
      <point x="807" y="1497"/>
      <point x="641" y="1497" type="curve" smooth="yes"/>
      <point x="476" y="1497"/>
      <point x="323" y="1423"/>
    </contour>
  </outline>
</glyph>
<glyph name="mu" format="1">
  <advance width="1537"/>
  <unicode hex="03BC"/>
  <outline>
    <contour>
      <point x="220" y="-299" type="curve" smooth="yes"/>
      <point x="313" y="-299" type="line" smooth="yes"/>
      <point x="356" y="-299"/>
      <point x="372" y="-275"/>
      <point x="372" y="-232" type="curve" smooth="yes"/>
      <point x="372" y="50" type="line"/>
      <point x="425" y="-19"/>
      <point x="553" y="-47"/>
      <point x="666" y="-47" type="curve" smooth="yes"/>
      <point x="856" y="-47"/>
      <point x="1042" y="18"/>
      <point x="1172" y="181" type="curve" smooth="yes"/>
      <point x="1178" y="188"/>
      <point x="1185" y="196"/>
      <point x="1193" y="196" type="curve" smooth="yes"/>
      <point x="1201" y="196"/>
      <point x="1202" y="191"/>
      <point x="1207" y="183" type="curve" smooth="yes"/>
      <point x="1232" y="64" type="line" smooth="yes"/>
      <point x="1243" y="15"/>
      <point x="1266" y="0"/>
      <point x="1313" y="0" type="curve" smooth="yes"/>
      <point x="1330" y="0" type="line" smooth="yes"/>
      <point x="1373" y="0"/>
      <point x="1387" y="34"/>
      <point x="1387" y="77" type="curve" smooth="yes"/>
      <point x="1387" y="939" type="line" smooth="yes"/>
      <point x="1387" y="982"/>
      <point x="1363" y="1006"/>
      <point x="1320" y="1006" type="curve" smooth="yes"/>
      <point x="1233" y="1006" type="line" smooth="yes"/>
      <point x="1190" y="1006"/>
      <point x="1168" y="982"/>
      <point x="1168" y="939" type="curve" smooth="yes"/>
      <point x="1168" y="397" type="line" smooth="yes"/>
      <point x="1168" y="264"/>
      <point x="903" y="109"/>
      <point x="707" y="109" type="curve" smooth="yes"/>
      <point x="520" y="109"/>
      <point x="371" y="170"/>
      <point x="371" y="397" type="curve" smooth="yes"/>
      <point x="371" y="939" type="line" smooth="yes"/>
      <point x="371" y="982"/>
      <point x="347" y="1006"/>
      <point x="304" y="1006" type="curve" smooth="yes"/>
      <point x="219" y="1006" type="line" smooth="yes"/>
      <point x="176" y="1006"/>
      <point x="152" y="982"/>
      <point x="152" y="939" type="curve" smooth="yes"/>
      <point x="152" y="-232" type="line" smooth="yes"/>
      <point x="152" y="-275"/>
      <point x="177" y="-299"/>
    </contour>
  </outline>
</glyph>
<glyph name="quoteleft" format="1">
  <advance width="603"/>
  <unicode hex="2018"/>
  <outline>
    <contour>
      <point x="208" y="914" type="curve" smooth="yes"/>
      <point x="404" y="914" type="line" smooth="yes"/>
      <point x="447" y="914"/>
      <point x="464" y="935"/>
      <point x="464" y="978" type="curve" smooth="yes"/>
      <point x="464" y="1181" type="line" smooth="yes"/>
      <point x="464" y="1219"/>
      <point x="442" y="1230"/>
      <point x="404" y="1230" type="curve" smooth="yes"/>
      <point x="319" y="1230" type="line" smooth="yes"/>
      <point x="304" y="1230"/>
      <point x="302" y="1241"/>
      <point x="302" y="1257" type="curve" smooth="yes"/>
      <point x="302" y="1281"/>
      <point x="335" y="1358"/>
      <point x="404" y="1401" type="curve" smooth="yes"/>
      <point x="447" y="1428"/>
      <point x="464" y="1422"/>
      <point x="464" y="1476" type="curve" smooth="yes"/>
      <point x="464" y="1485" type="line" smooth="yes"/>
      <point x="464" y="1521"/>
      <point x="434" y="1536"/>
      <point x="399" y="1530" type="curve" smooth="yes"/>
      <point x="261" y="1507"/>
      <point x="131" y="1371"/>
      <point x="131" y="1134" type="curve" smooth="yes"/>
      <point x="131" y="991" type="line" smooth="yes"/>
      <point x="131" y="948"/>
      <point x="165" y="914"/>
    </contour>
  </outline>
</glyph>
<glyph name="quoteright" format="1">
  <advance width="586"/>
  <unicode hex="2019"/>
  <outline>
    <contour>
      <point x="203" y="920" type="curve" smooth="yes"/>
      <point x="341" y="943"/>
      <point x="470" y="1080"/>
      <point x="470" y="1317" type="curve" smooth="yes"/>
      <point x="470" y="1460" type="line" smooth="yes"/>
      <point x="470" y="1503"/>
      <point x="436" y="1537"/>
      <point x="393" y="1537" type="curve" smooth="yes"/>
      <point x="197" y="1537" type="line" smooth="yes"/>
      <point x="154" y="1537"/>
      <point x="137" y="1516"/>
      <point x="137" y="1473" type="curve" smooth="yes"/>
      <point x="137" y="1270" type="line" smooth="yes"/>
      <point x="137" y="1232"/>
      <point x="159" y="1220"/>
      <point x="197" y="1220" type="curve" smooth="yes"/>
      <point x="282" y="1220" type="line" smooth="yes"/>
      <point x="297" y="1220"/>
      <point x="299" y="1209"/>
      <point x="299" y="1193" type="curve" smooth="yes"/>
      <point x="299" y="1169"/>
      <point x="267" y="1092"/>
      <point x="198" y="1049" type="curve" smooth="yes"/>
      <point x="155" y="1022"/>
      <point x="137" y="1028"/>
      <point x="137" y="974" type="curve" smooth="yes"/>
      <point x="137" y="965" type="line" smooth="yes"/>
      <point x="137" y="929"/>
      <point x="168" y="914"/>
    </contour>
  </outline>
</glyph>
<glyph name="perthousand" format="1">
  <advance width="3595"/>
  <unicode hex="2030"/>
  <outline>
    <contour>
      <point x="898" y="-82" type="curve" smooth="yes"/>
      <point x="927" y="-82" type="line" smooth="yes"/>
      <point x="973" y="-82"/>
      <point x="1016" y="-54"/>
      <point x="1035" y="-12" type="curve" smooth="yes"/>
      <point x="1689" y="1466" type="line" smooth="yes"/>
      <point x="1704" y="1499"/>
      <point x="1680" y="1536"/>
      <point x="1643" y="1536" type="curve" smooth="yes"/>
      <point x="1615" y="1536" type="line" smooth="yes"/>
      <point x="1569" y="1536"/>
      <point x="1525" y="1508"/>
      <point x="1507" y="1466" type="curve" smooth="yes"/>
      <point x="852" y="-12" type="line" smooth="yes"/>
      <point x="837" y="-45"/>
      <point x="861" y="-82"/>
    </contour>
    <contour>
      <point x="519" y="762" type="curve" smooth="yes"/>
      <point x="352" y="762"/>
      <point x="249" y="876"/>
      <point x="249" y="1060" type="curve" smooth="yes"/>
      <point x="249" y="1248"/>
      <point x="346" y="1358"/>
      <point x="519" y="1358" type="curve" smooth="yes"/>
      <point x="701" y="1358"/>
      <point x="790" y="1248"/>
      <point x="790" y="1060" type="curve" smooth="yes"/>
      <point x="790" y="876"/>
      <point x="696" y="762"/>
    </contour>
    <contour>
      <point x="519" y="623" type="curve" smooth="yes"/>
      <point x="816" y="623"/>
      <point x="967" y="819"/>
      <point x="967" y="1057" type="curve" smooth="yes"/>
      <point x="967" y="1293"/>
      <point x="820" y="1497"/>
      <point x="519" y="1497" type="curve" smooth="yes"/>
      <point x="218" y="1497"/>
      <point x="70" y="1293"/>
      <point x="70" y="1057" type="curve" smooth="yes"/>
      <point x="70" y="819"/>
      <point x="222" y="623"/>
    </contour>
    <contour>
      <point x="2016" y="141" type="curve" smooth="yes"/>
      <point x="1849" y="141"/>
      <point x="1745" y="255"/>
      <point x="1745" y="439" type="curve" smooth="yes"/>
      <point x="1745" y="627"/>
      <point x="1843" y="737"/>
      <point x="2016" y="737" type="curve" smooth="yes"/>
      <point x="2198" y="737"/>
      <point x="2286" y="627"/>
      <point x="2286" y="439" type="curve" smooth="yes"/>
      <point x="2286" y="255"/>
      <point x="2192" y="141"/>
    </contour>
    <contour>
      <point x="2016" y="2" type="curve" smooth="yes"/>
      <point x="2313" y="2"/>
      <point x="2464" y="198"/>
      <point x="2464" y="436" type="curve" smooth="yes"/>
      <point x="2464" y="672"/>
      <point x="2317" y="876"/>
      <point x="2016" y="876" type="curve" smooth="yes"/>
      <point x="1715" y="876"/>
      <point x="1567" y="672"/>
      <point x="1567" y="436" type="curve" smooth="yes"/>
      <point x="1567" y="198"/>
      <point x="1719" y="2"/>
    </contour>
    <contour>
      <point x="3077" y="141" type="curve" smooth="yes"/>
      <point x="2909" y="141"/>
      <point x="2806" y="255"/>
      <point x="2806" y="439" type="curve" smooth="yes"/>
      <point x="2806" y="627"/>
      <point x="2904" y="737"/>
      <point x="3077" y="737" type="curve" smooth="yes"/>
      <point x="3258" y="737"/>
      <point x="3347" y="627"/>
      <point x="3347" y="439" type="curve" smooth="yes"/>
      <point x="3347" y="255"/>
      <point x="3253" y="141"/>
    </contour>
    <contour>
      <point x="3077" y="2" type="curve" smooth="yes"/>
      <point x="3374" y="2"/>
      <point x="3524" y="198"/>
      <point x="3524" y="436" type="curve" smooth="yes"/>
      <point x="3524" y="672"/>
      <point x="3378" y="876"/>
      <point x="3077" y="876" type="curve" smooth="yes"/>
      <point x="2776" y="876"/>
      <point x="2628" y="672"/>
      <point x="2628" y="436" type="curve" smooth="yes"/>
      <point x="2628" y="198"/>
      <point x="2780" y="2"/>
    </contour>
  </outline>
</glyph>
<glyph name="guilsinglright" format="1">
  <advance width="707"/>
  <unicode hex="203A"/>
  <outline>
    <contour>
      <point x="113" y="251" type="curve" smooth="yes"/>
      <point x="119" y="251"/>
      <point x="125" y="253"/>
      <point x="131" y="255" type="curve" smooth="yes"/>
      <point x="580" y="582" type="line"/>
      <point x="613" y="607"/>
      <point x="640" y="623"/>
      <point x="640" y="664" type="curve" smooth="yes"/>
      <point x="640" y="720" type="line" smooth="yes"/>
      <point x="640" y="761"/>
      <point x="613" y="778"/>
      <point x="581" y="802" type="curve"/>
      <point x="130" y="1144" type="line" smooth="yes"/>
      <point x="124" y="1145"/>
      <point x="117" y="1148"/>
      <point x="111" y="1148" type="curve" smooth="yes"/>
      <point x="91" y="1148"/>
      <point x="72" y="1132"/>
      <point x="72" y="1107" type="curve" smooth="yes"/>
      <point x="72" y="1018" type="line" smooth="yes"/>
      <point x="72" y="976"/>
      <point x="100" y="959"/>
      <point x="134" y="939" type="curve"/>
      <point x="454" y="704" type="line"/>
      <point x="460" y="700"/>
      <point x="463" y="695"/>
      <point x="463" y="691" type="curve" smooth="yes"/>
      <point x="463" y="686"/>
      <point x="460" y="681"/>
      <point x="454" y="677" type="curve"/>
      <point x="134" y="445" type="line"/>
      <point x="101" y="423"/>
      <point x="72" y="407"/>
      <point x="72" y="366" type="curve" smooth="yes"/>
      <point x="72" y="292" type="line" smooth="yes"/>
      <point x="72" y="268"/>
      <point x="91" y="251"/>
    </contour>
  </outline>
</glyph>
<glyph name="fraction" format="1">
  <advance width="1231"/>
  <unicode hex="2044"/>
  <outline>
    <contour>
      <point x="112" y="-205" type="curve" smooth="yes"/>
      <point x="110" y="-205"/>
      <point x="207" y="-205"/>
      <point x="207" y="-205" type="curve" smooth="yes"/>
      <point x="228" y="-205"/>
      <point x="250" y="-193"/>
      <point x="259" y="-172" type="curve" smooth="yes"/>
      <point x="1163" y="1617" type="line" smooth="yes"/>
      <point x="1171" y="1633"/>
      <point x="1156" y="1647"/>
      <point x="1143" y="1647" type="curve" smooth="yes"/>
      <point x="1144" y="1647"/>
      <point x="1044" y="1647"/>
      <point x="1044" y="1647" type="curve" smooth="yes"/>
      <point x="1024" y="1647"/>
      <point x="1002" y="1633"/>
      <point x="994" y="1615" type="curve" smooth="yes"/>
      <point x="92" y="-172" type="line" smooth="yes"/>
      <point x="84" y="-188"/>
      <point x="96" y="-205"/>
    </contour>
  </outline>
</glyph>
<glyph name="Euro" format="1">
  <advance width="2185"/>
  <unicode hex="20AC"/>
  <outline>
    <contour>
      <point x="1125" y="-41" type="curve" smooth="yes"/>
      <point x="1487" y="-41"/>
      <point x="1870" y="48"/>
      <point x="2044" y="391" type="curve" smooth="yes"/>
      <point x="2046" y="395"/>
      <point x="2047" y="399"/>
      <point x="2047" y="405" type="curve" smooth="yes"/>
      <point x="2047" y="416"/>
      <point x="2042" y="428"/>
      <point x="2029" y="429" type="curve" smooth="yes"/>
      <point x="1860" y="456"/>
      <point x="1869" y="455"/>
      <point x="1866" y="455" type="curve" smooth="yes"/>
      <point x="1835" y="455"/>
      <point x="1827" y="430"/>
      <point x="1819" y="418" type="curve"/>
      <point x="1677" y="183"/>
      <point x="1418" y="121"/>
      <point x="1125" y="121" type="curve"/>
      <point x="735" y="121"/>
      <point x="347" y="226"/>
      <point x="347" y="721" type="curve" smooth="yes"/>
      <point x="347" y="1143"/>
      <point x="722" y="1313"/>
      <point x="1125" y="1313" type="curve"/>
      <point x="1426" y="1313"/>
      <point x="1672" y="1214"/>
      <point x="1819" y="996" type="curve" smooth="yes"/>
      <point x="1829" y="980"/>
      <point x="1849" y="974"/>
      <point x="1863" y="974" type="curve" smooth="yes"/>
      <point x="1864" y="974"/>
      <point x="1853" y="973"/>
      <point x="2028" y="998" type="curve" smooth="yes"/>
      <point x="2043" y="1001"/>
      <point x="2047" y="1009"/>
      <point x="2047" y="1016" type="curve" smooth="yes"/>
      <point x="2047" y="1023"/>
      <point x="2044" y="1030"/>
      <point x="2042" y="1035" type="curve" smooth="yes"/>
      <point x="1866" y="1362"/>
      <point x="1487" y="1475"/>
      <point x="1125" y="1475" type="curve" smooth="yes"/>
      <point x="671" y="1475"/>
      <point x="133" y="1292"/>
      <point x="133" y="721" type="curve" smooth="yes"/>
      <point x="133" y="102"/>
      <point x="671" y="-41"/>
    </contour>
    <contour>
      <point x="57" y="506" type="curve" smooth="yes"/>
      <point x="831" y="506" type="line" smooth="yes"/>
      <point x="874" y="506"/>
      <point x="888" y="519"/>
      <point x="888" y="562" type="curve" smooth="yes"/>
      <point x="888" y="606" type="line" smooth="yes"/>
      <point x="888" y="649"/>
      <point x="874" y="663"/>
      <point x="831" y="663" type="curve" smooth="yes"/>
      <point x="57" y="663" type="line" smooth="yes"/>
      <point x="14" y="663"/>
      <point x="0" y="649"/>
      <point x="0" y="606" type="curve" smooth="yes"/>
      <point x="0" y="562" type="line" smooth="yes"/>
      <point x="0" y="519"/>
      <point x="14" y="506"/>
    </contour>
    <contour>
      <point x="57" y="780" type="curve" smooth="yes"/>
      <point x="831" y="780" type="line" smooth="yes"/>
      <point x="874" y="780"/>
      <point x="888" y="794"/>
      <point x="888" y="837" type="curve" smooth="yes"/>
      <point x="888" y="881" type="line" smooth="yes"/>
      <point x="888" y="924"/>
      <point x="874" y="937"/>
      <point x="831" y="937" type="curve" smooth="yes"/>
      <point x="57" y="937" type="line" smooth="yes"/>
      <point x="14" y="937"/>
      <point x="0" y="924"/>
      <point x="0" y="881" type="curve" smooth="yes"/>
      <point x="0" y="837" type="line" smooth="yes"/>
      <point x="0" y="794"/>
      <point x="14" y="780"/>
    </contour>
  </outline>
</glyph>
<glyph name="trademark" format="1">
  <advance width="4177"/>
  <unicode hex="2122"/>
  <outline>
    <contour>
      <point x="1314" y="400" type="curve" smooth="yes"/>
      <point x="1369" y="400" type="line" smooth="yes"/>
      <point x="1398" y="400"/>
      <point x="1415" y="418"/>
      <point x="1417" y="449" type="curve"/>
      <point x="1480" y="1168" type="line" smooth="yes"/>
      <point x="1480" y="1167"/>
      <point x="1487" y="1170"/>
      <point x="1487" y="1171" type="curve" smooth="yes"/>
      <point x="1869" y="449" type="line" smooth="yes"/>
      <point x="1885" y="419"/>
      <point x="1908" y="402"/>
      <point x="1936" y="400" type="curve" smooth="yes"/>
      <point x="2004" y="400" type="line" smooth="yes"/>
      <point x="2031" y="402"/>
      <point x="2056" y="419"/>
      <point x="2071" y="449" type="curve" smooth="yes"/>
      <point x="2470" y="1180" type="line" smooth="yes"/>
      <point x="2470" y="1180"/>
      <point x="2479" y="1179"/>
      <point x="2479" y="1179" type="curve" smooth="yes"/>
      <point x="2537" y="449" type="line"/>
      <point x="2539" y="418"/>
      <point x="2557" y="400"/>
      <point x="2585" y="400" type="curve" smooth="yes"/>
      <point x="2641" y="400" type="line" smooth="yes"/>
      <point x="2669" y="400"/>
      <point x="2683" y="418"/>
      <point x="2681" y="449" type="curve"/>
      <point x="2609" y="1385" type="line"/>
      <point x="2607" y="1415"/>
      <point x="2593" y="1431"/>
      <point x="2566" y="1433" type="curve" smooth="yes"/>
      <point x="2505" y="1433" type="line" smooth="yes"/>
      <point x="2479" y="1431"/>
      <point x="2454" y="1415"/>
      <point x="2439" y="1385" type="curve" smooth="yes"/>
      <point x="1979" y="545" type="line" smooth="yes"/>
      <point x="1979" y="546"/>
      <point x="1965" y="546"/>
      <point x="1965" y="545" type="curve" smooth="yes"/>
      <point x="1520" y="1385" type="line" smooth="yes"/>
      <point x="1503" y="1415"/>
      <point x="1480" y="1431"/>
      <point x="1454" y="1433" type="curve" smooth="yes"/>
      <point x="1391" y="1433" type="line" smooth="yes"/>
      <point x="1365" y="1431"/>
      <point x="1352" y="1415"/>
      <point x="1350" y="1385" type="curve"/>
      <point x="1272" y="449" type="line"/>
      <point x="1270" y="418"/>
      <point x="1286" y="400"/>
    </contour>
    <contour>
      <point x="701" y="400" type="curve" smooth="yes"/>
      <point x="755" y="400" type="line" smooth="yes"/>
      <point x="784" y="400"/>
      <point x="799" y="418"/>
      <point x="799" y="449" type="curve" smooth="yes"/>
      <point x="799" y="1304" type="line" smooth="yes"/>
      <point x="799" y="1318"/>
      <point x="805" y="1322"/>
      <point x="817" y="1322" type="curve" smooth="yes"/>
      <point x="1190" y="1322" type="line" smooth="yes"/>
      <point x="1218" y="1322"/>
      <point x="1233" y="1345"/>
      <point x="1233" y="1377" type="curve" smooth="yes"/>
      <point x="1233" y="1378" type="line" smooth="yes"/>
      <point x="1233" y="1409"/>
      <point x="1218" y="1433"/>
      <point x="1190" y="1433" type="curve" smooth="yes"/>
      <point x="265" y="1433" type="line" smooth="yes"/>
      <point x="237" y="1433"/>
      <point x="221" y="1409"/>
      <point x="221" y="1378" type="curve" smooth="yes"/>
      <point x="221" y="1377" type="line" smooth="yes"/>
      <point x="221" y="1345"/>
      <point x="237" y="1322"/>
      <point x="265" y="1322" type="curve" smooth="yes"/>
      <point x="638" y="1322" type="line" smooth="yes"/>
      <point x="652" y="1322"/>
      <point x="656" y="1318"/>
      <point x="656" y="1304" type="curve" smooth="yes"/>
      <point x="656" y="449" type="line" smooth="yes"/>
      <point x="656" y="418"/>
      <point x="673" y="400"/>
    </contour>
  </outline>
</glyph>
